<svg width="580" height="505" viewBox="0 0 580 505" fill="none" xmlns="http://www.w3.org/2000/svg">
<g opacity="0.1">
<path d="M228.765 293.582L273.798 355.601C278.461 362.038 286.309 365.227 294.403 363.852L371.893 350.917C379.988 349.542 386.872 344.017 390.305 336.205L422.76 261.25C426.193 253.438 425.229 244.724 420.567 238.287L375.533 176.268C370.871 169.831 363.023 166.642 354.928 168.017L277.439 180.952C269.344 182.327 262.459 187.852 259.027 195.664L226.571 270.619C223.367 278.324 224.102 287.144 228.765 293.582ZM265.393 201.975C268.477 195 274.767 190.025 281.93 188.683L351.553 177.015C358.805 175.901 365.773 178.56 369.941 184.421L410.559 240.291C414.728 246.151 415.495 254.014 412.411 260.988L383.317 328.298C380.233 335.273 373.944 340.248 366.78 341.591L297.158 353.258C289.905 354.372 282.938 351.713 278.77 345.853L238.31 290.043C234.141 284.182 233.374 276.32 236.459 269.345L265.393 201.975Z" fill="#FDE1D7"/>
<path d="M118.616 266.223C114.804 263.018 112.025 258.652 110.934 253.763L96.822 186.939C94.8169 177.62 99.9097 165.371 108.213 159.986L166.561 122.182C174.864 116.797 187.43 117.511 194.491 123.511L244.516 166.715C251.665 172.944 254.21 185.386 250.373 194.614L223.126 259.261C219.289 268.489 208.424 275.618 198.903 275.094L131.886 271.871C127.205 271.64 122.429 269.428 118.616 266.223ZM113.466 272.422C118.585 276.904 124.859 279.493 131.018 279.706L198.034 282.929C210.987 283.596 225.17 274.233 230.332 261.817L257.579 197.171C262.9 184.814 259.391 168.505 249.964 160.24L199.939 117.036C190.354 108.711 174.128 107.961 162.964 115.365L104.774 153.229C93.452 160.573 86.8942 176.345 89.5274 189.016L103.639 255.84C104.718 262.084 108.347 267.941 113.466 272.422Z" fill="#FDE1D7"/>
<path d="M66.0055 330.952L75.5525 337.746L123.333 272.187L113.786 265.393L66.0055 330.952Z" fill="#FDE1D7"/>
<path d="M71.7814 327.845C66.388 325.815 60.0467 328.867 57.6178 334.66C55.1888 340.453 57.5921 346.794 62.9855 348.823C68.379 350.853 74.7202 347.801 77.1492 342.008C79.5781 336.215 77.1749 329.874 71.7814 327.845Z" fill="#FDE1D7"/>
<path d="M247.977 427.658L258.752 432.135L291.719 358.061L280.944 353.585L247.977 427.658Z" fill="#FDE1D7"/>
<path d="M255.435 424.303C250.034 422.265 243.692 425.301 241.271 431.085C238.85 436.869 241.266 443.21 246.667 445.249C252.069 447.287 258.41 444.251 260.831 438.467C263.252 432.683 260.836 426.342 255.435 424.303Z" fill="#FDE1D7"/>
<path d="M399.215 100.903L388.346 96.6826L357.008 171.453L367.877 175.673L399.215 100.903Z" fill="#FDE1D7"/>
<path d="M400.357 83.4222C394.955 81.3823 388.614 84.4162 386.194 90.1987C383.774 95.9812 386.192 102.323 391.594 104.363C396.997 106.402 403.338 103.369 405.758 97.586C408.178 91.8035 405.76 85.4622 400.357 83.4222Z" fill="#FDE1D7"/>
<path d="M438.871 403.555L448.018 393.459L389.324 340.232L380.177 350.328L438.871 403.555Z" fill="#FDE1D7"/>
<path d="M452.152 392.736C446.762 390.71 440.42 393.765 437.988 399.56C435.557 405.356 437.955 411.697 443.346 413.724C448.736 415.75 455.078 412.695 457.51 406.9C459.941 401.104 457.543 394.763 452.152 392.736Z" fill="#FDE1D7"/>
<path d="M501.341 248.61L500.442 237.418L420.178 248.821L421.077 260.013L501.341 248.61Z" fill="#FDE1D7"/>
<path d="M510.754 232.968C505.368 230.946 499.026 234.009 496.591 239.81C494.155 245.61 496.547 251.952 501.934 253.974C507.321 255.996 513.662 252.933 516.098 247.132C518.533 241.332 516.141 234.99 510.754 232.968Z" fill="#FDE1D7"/>
</g>
</svg>
