<svg width="33" height="22" viewBox="0 0 33 22" fill="none" xmlns="http://www.w3.org/2000/svg">
<g clip-path="url(#clip0)">
<path fill-rule="evenodd" clip-rule="evenodd" d="M0.0393066 2.26563C0.0393066 1.4372 0.71088 0.765625 1.53931 0.765625H30.5393C31.3677 0.765625 32.0393 1.4372 32.0393 2.26563V20.2656C32.0393 21.0941 31.3677 21.7656 30.5393 21.7656H1.53931C0.71088 21.7656 0.0393066 21.0941 0.0393066 20.2656V2.26563Z" fill="url(#paint0_radial)"/>
<path fill-rule="evenodd" clip-rule="evenodd" d="M0.0393066 2.26563C0.0393066 1.4372 0.71088 0.765625 1.53931 0.765625H30.5393C31.3677 0.765625 32.0393 1.4372 32.0393 2.26563V20.2656C32.0393 21.0941 31.3677 21.7656 30.5393 21.7656H1.53931C0.71088 21.7656 0.0393066 21.0941 0.0393066 20.2656V2.26563Z" fill="#E5E5E5" fill-opacity="0.01"/>
<mask id="path-3-outside-1" maskUnits="userSpaceOnUse" x="3.60724" y="7.76562" width="25" height="7" fill="black">
<rect fill="white" x="3.60724" y="7.76562" width="25" height="7"/>
<path fill-rule="evenodd" clip-rule="evenodd" d="M7.43567 11.8329L8.10251 9.99812H8.11686L8.76219 11.8329H7.43567ZM7.54323 8.76562L5.60724 13.7656H6.74015L7.14169 12.6522H9.05617L9.44337 13.7656H10.6121L8.69765 8.76562H7.54323ZM11.0567 8.76562V13.7656H12.1107V10.2572H12.1251L13.3799 13.7656H14.2475L15.5023 10.2222H15.5166V13.7656H16.5707V8.76562H14.986L13.8531 12.204H13.8388L12.6413 8.76562H11.0567ZM17.5602 8.76562V13.7656H21.4465V12.8413H18.6859V11.6158H21.1669V10.7614H18.6859V9.68999H21.3891V8.76562H17.5602ZM23.4614 11.1466L21.676 13.7656H22.9379L24.078 12.0359L25.1966 13.7656H26.5374L24.752 11.1536L26.394 8.76562H25.1607L24.121 10.3623L23.1172 8.76562H21.8122L23.4614 11.1466Z"/>
</mask>
<path fill-rule="evenodd" clip-rule="evenodd" d="M7.43567 11.8329L8.10251 9.99812H8.11686L8.76219 11.8329H7.43567ZM7.54323 8.76562L5.60724 13.7656H6.74015L7.14169 12.6522H9.05617L9.44337 13.7656H10.6121L8.69765 8.76562H7.54323ZM11.0567 8.76562V13.7656H12.1107V10.2572H12.1251L13.3799 13.7656H14.2475L15.5023 10.2222H15.5166V13.7656H16.5707V8.76562H14.986L13.8531 12.204H13.8388L12.6413 8.76562H11.0567ZM17.5602 8.76562V13.7656H21.4465V12.8413H18.6859V11.6158H21.1669V10.7614H18.6859V9.68999H21.3891V8.76562H17.5602ZM23.4614 11.1466L21.676 13.7656H22.9379L24.078 12.0359L25.1966 13.7656H26.5374L24.752 11.1536L26.394 8.76562H25.1607L24.121 10.3623L23.1172 8.76562H21.8122L23.4614 11.1466Z" fill="#1793C0" fill-opacity="0.01"/>
<path d="M7.43567 11.8329L6.49583 11.4913L6.00822 12.8329H7.43567V11.8329ZM8.10251 9.99812V8.99812H7.40197L7.16267 9.65653L8.10251 9.99812ZM8.11686 9.99812L9.0602 9.66631L8.82518 8.99812H8.11686V9.99812ZM8.76219 11.8329V12.8329H10.174L9.70553 11.501L8.76219 11.8329ZM7.54323 8.76562V7.76562H6.85808L6.61069 8.40455L7.54323 8.76562ZM5.60724 13.7656L4.6747 13.4045L4.1477 14.7656H5.60724V13.7656ZM6.74015 13.7656V14.7656H7.44256L7.68085 14.1049L6.74015 13.7656ZM7.14169 12.6522V11.6522H6.43928L6.20099 12.3129L7.14169 12.6522ZM9.05617 12.6522L10.0007 12.3237L9.76716 11.6522H9.05617V12.6522ZM9.44337 13.7656L8.49885 14.0941L8.73238 14.7656H9.44337V13.7656ZM10.6121 13.7656V14.7656H12.0658L11.546 13.408L10.6121 13.7656ZM8.69765 8.76562L9.63154 8.40805L9.38556 7.76562H8.69765V8.76562ZM11.0567 8.76562V7.76562H10.0567V8.76562H11.0567ZM11.0567 13.7656H10.0567V14.7656H11.0567V13.7656ZM12.1107 13.7656V14.7656H13.1107V13.7656H12.1107ZM12.1107 10.2572V9.25722H11.1107V10.2572H12.1107ZM12.1251 10.2572L13.0667 9.92046L12.8294 9.25722H12.1251V10.2572ZM13.3799 13.7656L12.4383 14.1024L12.6755 14.7656H13.3799V13.7656ZM14.2475 13.7656V14.7656H14.9542L15.1901 14.0994L14.2475 13.7656ZM15.5023 10.2222V9.22221H14.7956L14.5597 9.8884L15.5023 10.2222ZM15.5166 10.2222H16.5166V9.22221H15.5166V10.2222ZM15.5166 13.7656H14.5166V14.7656H15.5166V13.7656ZM16.5707 13.7656V14.7656H17.5707V13.7656H16.5707ZM16.5707 8.76562H17.5707V7.76562H16.5707V8.76562ZM14.986 8.76562V7.76562H14.2626L14.0363 8.45268L14.986 8.76562ZM13.8531 12.204V13.204H14.5765L14.8029 12.5169L13.8531 12.204ZM13.8388 12.204L12.8944 12.5329L13.1281 13.204H13.8388V12.204ZM12.6413 8.76562L13.5857 8.43674L13.352 7.76562H12.6413V8.76562ZM17.5602 8.76562V7.76562H16.5602V8.76562H17.5602ZM17.5602 13.7656H16.5602V14.7656H17.5602V13.7656ZM21.4465 13.7656V14.7656H22.4465V13.7656H21.4465ZM21.4465 12.8413H22.4465V11.8413H21.4465V12.8413ZM18.6859 12.8413H17.6859V13.8413H18.6859V12.8413ZM18.6859 11.6158V10.6158H17.6859V11.6158H18.6859ZM21.1669 11.6158V12.6158H22.1669V11.6158H21.1669ZM21.1669 10.7614H22.1669V9.76142H21.1669V10.7614ZM18.6859 10.7614H17.6859V11.7614H18.6859V10.7614ZM18.6859 9.68999V8.68999H17.6859V9.68999H18.6859ZM21.3891 9.68999V10.69H22.3891V9.68999H21.3891ZM21.3891 8.76562H22.3891V7.76562H21.3891V8.76562ZM23.4614 11.1466L24.2876 11.7098L24.6747 11.1421L24.2834 10.5772L23.4614 11.1466ZM21.676 13.7656L20.8497 13.2024L19.784 14.7656H21.676V13.7656ZM22.9379 13.7656V14.7656H23.4765L23.7729 14.316L22.9379 13.7656ZM24.078 12.0359L24.9177 11.4929L24.086 10.2068L23.2431 11.4856L24.078 12.0359ZM25.1966 13.7656L24.3569 14.3087L24.6524 14.7656H25.1966V13.7656ZM26.5374 13.7656V14.7656H28.4323L27.363 13.2013L26.5374 13.7656ZM24.752 11.1536L23.928 10.587L23.5396 11.1519L23.9265 11.7179L24.752 11.1536ZM26.394 8.76562L27.218 9.33222L28.2953 7.76562H26.394V8.76562ZM25.1607 8.76562V7.76562H24.6186L24.3227 8.21994L25.1607 8.76562ZM24.121 10.3623L23.2745 10.8945L24.1063 12.2175L24.959 10.9079L24.121 10.3623ZM23.1172 8.76562L23.9638 8.23336L23.6697 7.76562H23.1172V8.76562ZM21.8122 8.76562V7.76562H19.9031L20.9901 9.33503L21.8122 8.76562ZM8.37552 12.1744L9.04236 10.3397L7.16267 9.65653L6.49583 11.4913L8.37552 12.1744ZM8.10251 10.9981H8.11686V8.99812H8.10251V10.9981ZM7.17351 10.3299L7.81884 12.1647L9.70553 11.501L9.0602 9.66631L7.17351 10.3299ZM8.76219 10.8329H7.43567V12.8329H8.76219V10.8329ZM6.61069 8.40455L4.6747 13.4045L6.53978 14.1267L8.47576 9.1267L6.61069 8.40455ZM5.60724 14.7656H6.74015V12.7656H5.60724V14.7656ZM7.68085 14.1049L8.08239 12.9914L6.20099 12.3129L5.79945 13.4264L7.68085 14.1049ZM7.14169 13.6522H9.05617V11.6522H7.14169V13.6522ZM8.11165 12.9806L8.49885 14.0941L10.3879 13.4372L10.0007 12.3237L8.11165 12.9806ZM9.44337 14.7656H10.6121V12.7656H9.44337V14.7656ZM11.546 13.408L9.63154 8.40805L7.76377 9.1232L9.67825 14.1232L11.546 13.408ZM8.69765 7.76562H7.54323V9.76562H8.69765V7.76562ZM10.0567 8.76562V13.7656H12.0567V8.76562H10.0567ZM11.0567 14.7656H12.1107V12.7656H11.0567V14.7656ZM13.1107 13.7656V10.2572H11.1107V13.7656H13.1107ZM12.1107 11.2572H12.1251V9.25722H12.1107V11.2572ZM11.1835 10.594L12.4383 14.1024L14.3215 13.4289L13.0667 9.92046L11.1835 10.594ZM13.3799 14.7656H14.2475V12.7656H13.3799V14.7656ZM15.1901 14.0994L16.4449 10.556L14.5597 9.8884L13.3049 13.4318L15.1901 14.0994ZM15.5023 11.2222H15.5166V9.22221H15.5023V11.2222ZM14.5166 10.2222V13.7656H16.5166V10.2222H14.5166ZM15.5166 14.7656H16.5707V12.7656H15.5166V14.7656ZM17.5707 13.7656V8.76562H15.5707V13.7656H17.5707ZM16.5707 7.76562H14.986V9.76562H16.5707V7.76562ZM14.0363 8.45268L12.9033 11.8911L14.8029 12.5169L15.9358 9.07857L14.0363 8.45268ZM13.8531 11.204H13.8388V13.204H13.8531V11.204ZM14.7832 11.8751L13.5857 8.43674L11.697 9.09451L12.8944 12.5329L14.7832 11.8751ZM12.6413 7.76562H11.0567V9.76562H12.6413V7.76562ZM16.5602 8.76562V13.7656H18.5602V8.76562H16.5602ZM17.5602 14.7656H21.4465V12.7656H17.5602V14.7656ZM22.4465 13.7656V12.8413H20.4465V13.7656H22.4465ZM21.4465 11.8413H18.6859V13.8413H21.4465V11.8413ZM19.6859 12.8413V11.6158H17.6859V12.8413H19.6859ZM18.6859 12.6158H21.1669V10.6158H18.6859V12.6158ZM22.1669 11.6158V10.7614H20.1669V11.6158H22.1669ZM21.1669 9.76142H18.6859V11.7614H21.1669V9.76142ZM19.6859 10.7614V9.68999H17.6859V10.7614H19.6859ZM18.6859 10.69H21.3891V8.68999H18.6859V10.69ZM22.3891 9.68999V8.76562H20.3891V9.68999H22.3891ZM21.3891 7.76562H17.5602V9.76562H21.3891V7.76562ZM22.6351 10.5833L20.8497 13.2024L22.5022 14.3289L24.2876 11.7098L22.6351 10.5833ZM21.676 14.7656H22.9379V12.7656H21.676V14.7656ZM23.7729 14.316L24.913 12.5863L23.2431 11.4856L22.103 13.2153L23.7729 14.316ZM23.2383 12.579L24.3569 14.3087L26.0363 13.2226L24.9177 11.4929L23.2383 12.579ZM25.1966 14.7656H26.5374V12.7656H25.1966V14.7656ZM27.363 13.2013L25.5776 10.5893L23.9265 11.7179L25.7119 14.3299L27.363 13.2013ZM25.576 11.7202L27.218 9.33222L25.57 8.19903L23.928 10.587L25.576 11.7202ZM26.394 7.76562H25.1607V9.76562H26.394V7.76562ZM24.3227 8.21994L23.283 9.81658L24.959 10.9079L25.9987 9.31131L24.3227 8.21994ZM24.9676 9.83L23.9638 8.23336L22.2706 9.29789L23.2745 10.8945L24.9676 9.83ZM23.1172 7.76562H21.8122V9.76562H23.1172V7.76562ZM20.9901 9.33503L22.6393 11.716L24.2834 10.5772L22.6343 8.19622L20.9901 9.33503Z" fill="white" mask="url(#path-3-outside-1)"/>
</g>
<defs>
<radialGradient id="paint0_radial" cx="0" cy="0" r="1" gradientUnits="userSpaceOnUse" gradientTransform="translate(10.7854 4.74609) rotate(90) scale(21 32)">
<stop stop-color="#71C8F2"/>
<stop offset="1" stop-color="#0071BD"/>
</radialGradient>
<clipPath id="clip0">
<rect width="32" height="21" fill="white" transform="translate(0.0393066 0.765625)"/>
</clipPath>
</defs>
</svg>
