<svg width="33" height="22" viewBox="0 0 33 22" fill="none" xmlns="http://www.w3.org/2000/svg">
<g clip-path="url(#clip0)">
<path fill-rule="evenodd" clip-rule="evenodd" d="M0.0393066 2.26563C0.0393066 1.4372 0.71088 0.765625 1.53931 0.765625H30.5393C31.3677 0.765625 32.0393 1.4372 32.0393 2.26563V20.2656C32.0393 21.0941 31.3677 21.7656 30.5393 21.7656H1.53931C0.71088 21.7656 0.0393066 21.0941 0.0393066 20.2656V2.26563Z" fill="#F4F6F7"/>
<path fill-rule="evenodd" clip-rule="evenodd" d="M0.0393066 2.26563C0.0393066 1.4372 0.71088 0.765625 1.53931 0.765625H30.5393C31.3677 0.765625 32.0393 1.4372 32.0393 2.26563V20.2656C32.0393 21.0941 31.3677 21.7656 30.5393 21.7656H1.53931C0.71088 21.7656 0.0393066 21.0941 0.0393066 20.2656V2.26563Z" fill="#E5E5E5" fill-opacity="0.01"/>
<path fill-rule="evenodd" clip-rule="evenodd" d="M17.3527 16.2458C20.0558 16.2589 22.523 14.0212 22.523 11.2991C22.523 8.32226 20.0558 6.26464 17.3527 6.26563H15.0264C12.2909 6.26464 10.0393 8.32287 10.0393 11.2991C10.0393 14.0218 12.2909 16.2589 15.0264 16.2458H17.3527Z" fill="url(#paint0_linear)"/>
<path fill-rule="evenodd" clip-rule="evenodd" d="M15.036 6.6814C12.5364 6.68219 10.5108 8.72674 10.5103 11.2501C10.5108 13.7731 12.5363 15.8174 15.036 15.8182C17.5362 15.8174 19.5621 13.7731 19.5624 11.2501C19.5621 8.72674 17.5362 6.68219 15.036 6.6814ZM12.1672 11.2501C12.1696 10.0171 12.9327 8.96557 14.0089 8.54773V13.9519C12.9327 13.5343 12.1696 12.4834 12.1672 11.2501ZM16.0626 13.9531V8.54755C17.1392 8.96439 17.9035 10.0165 17.9055 11.2501C17.9035 12.4842 17.1392 13.5355 16.0626 13.9531Z" fill="#F4F6F7"/>
</g>
<defs>
<linearGradient id="paint0_linear" x1="25.1136" y1="14.3359" x2="21.9121" y2="3.87317" gradientUnits="userSpaceOnUse">
<stop stop-color="#009BE0"/>
<stop offset="1" stop-color="#006BA8"/>
</linearGradient>
<clipPath id="clip0">
<rect width="32" height="21" fill="white" transform="translate(0.0393066 0.765625)"/>
</clipPath>
</defs>
</svg>
