<svg width="33" height="22" viewBox="0 0 33 22" fill="none" xmlns="http://www.w3.org/2000/svg">
<g clip-path="url(#clip0)">
<path fill-rule="evenodd" clip-rule="evenodd" d="M0.0393066 2.26563C0.0393066 1.4372 0.71088 0.765625 1.53931 0.765625H30.5393C31.3677 0.765625 32.0393 1.4372 32.0393 2.26563V20.2656C32.0393 21.0941 31.3677 21.7656 30.5393 21.7656H1.53931C0.71088 21.7656 0.0393066 21.0941 0.0393066 20.2656V2.26563Z" fill="url(#paint0_linear)"/>
<path fill-rule="evenodd" clip-rule="evenodd" d="M0.0393066 2.26563C0.0393066 1.4372 0.71088 0.765625 1.53931 0.765625H30.5393C31.3677 0.765625 32.0393 1.4372 32.0393 2.26563V20.2656C32.0393 21.0941 31.3677 21.7656 30.5393 21.7656H1.53931C0.71088 21.7656 0.0393066 21.0941 0.0393066 20.2656V2.26563Z" fill="#E5E5E5" fill-opacity="0.01"/>
<path fill-rule="evenodd" clip-rule="evenodd" d="M7.05562 12.0988C6.84514 12.2901 6.57161 12.3736 6.13869 12.3736H5.95886V10.0878H6.13869C6.57161 10.0878 6.83439 10.1658 7.05562 10.3674C7.28735 10.5749 7.4267 10.8968 7.4267 11.2278C7.4267 11.5597 7.28735 11.8912 7.05562 12.0988ZM6.27287 9.5022H5.28931V12.9586H6.26769C6.78794 12.9586 7.16366 12.8352 7.49332 12.5596C7.88523 12.2334 8.11695 11.7415 8.11695 11.2329C8.11695 10.2128 7.35954 9.5022 6.27287 9.5022Z" fill="#212D34"/>
<path fill-rule="evenodd" clip-rule="evenodd" d="M8.42523 12.9588H9.09532V9.5022H8.42523V12.9588Z" fill="#212D34"/>
<path fill-rule="evenodd" clip-rule="evenodd" d="M10.7337 10.8285C10.3316 10.6788 10.2136 10.5802 10.2136 10.3933C10.2136 10.1757 10.424 10.0102 10.7128 10.0102C10.9134 10.0102 11.0785 10.0933 11.2531 10.2901L11.6037 9.8282C11.3156 9.5746 10.9709 9.44507 10.5943 9.44507C9.98642 9.44507 9.52284 9.86973 9.52284 10.4354C9.52284 10.9116 9.73864 11.1555 10.368 11.3833C10.6304 11.4765 10.7639 11.5384 10.8312 11.5801C10.9651 11.6681 11.0321 11.7927 11.0321 11.9379C11.0321 12.2179 10.8109 12.4254 10.5118 12.4254C10.1923 12.4254 9.93479 12.2645 9.78058 11.9643L9.34766 12.3838C9.65635 12.8398 10.0272 13.0418 10.5371 13.0418C11.2333 13.0418 11.7218 12.5759 11.7218 11.9069C11.7218 11.3576 11.4959 11.1091 10.7337 10.8285Z" fill="#212D34"/>
<path fill-rule="evenodd" clip-rule="evenodd" d="M11.9332 11.2329C11.9332 12.2489 12.726 13.0366 13.7463 13.0366C14.0347 13.0366 14.2818 12.9796 14.5864 12.8352V12.0416C14.3186 12.3113 14.0813 12.4202 13.7775 12.4202C13.1027 12.4202 12.6237 11.9278 12.6237 11.2278C12.6237 10.5642 13.1178 10.0408 13.7463 10.0408C14.0659 10.0408 14.3079 10.1555 14.5864 10.4296V9.6364C14.2923 9.4863 14.0505 9.42407 13.7621 9.42407C12.747 9.42407 11.9332 10.2279 11.9332 11.2329Z" fill="#212D34"/>
<path fill-rule="evenodd" clip-rule="evenodd" d="M19.8993 11.8239L18.9833 9.5022H18.2512L19.709 13.0474H20.0696L21.5536 9.5022H20.8272L19.8993 11.8239Z" fill="#212D34"/>
<path fill-rule="evenodd" clip-rule="evenodd" d="M21.8566 12.9585H23.7568V12.3733H22.5261V11.4403H23.7115V10.8549H22.5261V10.0877H23.7568V9.50195H21.8566V12.9585Z" fill="#212D34"/>
<path fill-rule="evenodd" clip-rule="evenodd" d="M25.0656 11.0934H24.8698V10.0465H25.0762C25.4936 10.0465 25.7204 10.2224 25.7204 10.5588C25.7204 10.9063 25.4936 11.0934 25.0656 11.0934ZM26.4099 10.5225C26.4099 9.87533 25.9669 9.50195 25.1942 9.50195H24.2006V12.9585H24.8698V11.57H24.9573L25.8847 12.9585H26.7088L25.6273 11.5024C26.132 11.399 26.4099 11.0517 26.4099 10.5225Z" fill="#212D34"/>
<g filter="url(#filter0_i)">
<path fill-rule="evenodd" clip-rule="evenodd" d="M18.4601 11.2423C18.4601 12.2579 17.6419 13.0811 16.6326 13.0811C15.6233 13.0811 14.8052 12.2579 14.8052 11.2423C14.8052 10.2267 15.6233 9.40356 16.6326 9.40356C17.6419 9.40356 18.4601 10.2267 18.4601 11.2423Z" fill="url(#paint1_linear)"/>
</g>
</g>
<defs>
<filter id="filter0_i" x="14.8052" y="9.40356" width="3.65487" height="3.67757" filterUnits="userSpaceOnUse" color-interpolation-filters="sRGB">
<feFlood flood-opacity="0" result="BackgroundImageFix"/>
<feBlend mode="normal" in="SourceGraphic" in2="BackgroundImageFix" result="shape"/>
<feColorMatrix in="SourceAlpha" type="matrix" values="0 0 0 0 0 0 0 0 0 0 0 0 0 0 0 0 0 0 127 0" result="hardAlpha"/>
<feOffset dx="1" dy="1"/>
<feComposite in2="hardAlpha" operator="arithmetic" k2="-1" k3="1"/>
<feColorMatrix type="matrix" values="0 0 0 0 0.314068 0 0 0 0 0.00146228 0 0 0 0 0.00146228 0 0 0 0.5 0"/>
<feBlend mode="normal" in2="shape" result="effect1_innerShadow"/>
</filter>
<linearGradient id="paint0_linear" x1="-15.9607" y1="11.2656" x2="3.30484" y2="40.6226" gradientUnits="userSpaceOnUse">
<stop stop-color="#EDF1F3"/>
<stop offset="1" stop-color="#D3DADF"/>
</linearGradient>
<linearGradient id="paint1_linear" x1="18.8713" y1="11.5938" x2="16.7027" y2="9.02908" gradientUnits="userSpaceOnUse">
<stop stop-color="#FFA700"/>
<stop offset="1" stop-color="#E75A10"/>
</linearGradient>
<clipPath id="clip0">
<rect width="32" height="21" fill="white" transform="translate(0.0393066 0.765625)"/>
</clipPath>
</defs>
</svg>
