<svg width="18" height="18" viewBox="0 0 18 18" fill="none" xmlns="http://www.w3.org/2000/svg">
<g clip-path="url(#clip0)">
<path d="M12.7879 0.769406L10.5834 0.765869C8.10675 0.765869 6.50621 2.40798 6.50621 4.94959V6.87857H4.28969C4.09816 6.87857 3.94305 7.03385 3.94305 7.22538V10.0203C3.94305 10.2118 4.09833 10.3669 4.28969 10.3669H6.50621V17.4192C6.50621 17.6108 6.66131 17.7659 6.85285 17.7659H9.74478C9.93632 17.7659 10.0914 17.6106 10.0914 17.4192V10.3669H12.6831C12.8746 10.3669 13.0297 10.2118 13.0297 10.0203L13.0307 7.22538C13.0307 7.13342 12.9941 7.04534 12.9292 6.98026C12.8643 6.91518 12.7759 6.87857 12.6839 6.87857H10.0914V5.24335C10.0914 4.4574 10.2787 4.05841 11.3025 4.05841L12.7876 4.05788C12.9789 4.05788 13.134 3.9026 13.134 3.71124V1.11605C13.134 0.924863 12.9791 0.76976 12.7879 0.769406Z" fill="white"/>
</g>
<defs>
<clipPath id="clip0">
<rect width="17" height="17" fill="white" transform="translate(0.0390625 0.765869)"/>
</clipPath>
</defs>
</svg>
