<svg width="33" height="22" viewBox="0 0 33 22" fill="none" xmlns="http://www.w3.org/2000/svg">
<g clip-path="url(#clip0)">
<path d="M0.539307 2.26563C0.539307 1.71334 0.987022 1.26562 1.53931 1.26562H30.5393C31.0916 1.26562 31.5393 1.71334 31.5393 2.26563V20.2656C31.5393 20.8179 31.0916 21.2656 30.5393 21.2656H1.53931C0.987022 21.2656 0.539307 20.8179 0.539307 20.2656V2.26563Z" fill="#F4F6F7" stroke="#8A5137"/>
<path fill-rule="evenodd" clip-rule="evenodd" d="M0.0393066 2.26563C0.0393066 1.4372 0.71088 0.765625 1.53931 0.765625H30.5393C31.3677 0.765625 32.0393 1.4372 32.0393 2.26563V20.2656C32.0393 21.0941 31.3677 21.7656 30.5393 21.7656H1.53931C0.71088 21.7656 0.0393066 21.0941 0.0393066 20.2656V2.26563Z" fill="#E5E5E5" fill-opacity="0.01"/>
<path fill-rule="evenodd" clip-rule="evenodd" d="M20.7855 6.76562C20.6839 6.76588 20.5825 6.76897 20.4828 6.77912C20.0927 6.81876 19.7257 6.99283 19.4621 7.26141C19.2665 7.46065 19.1308 7.7074 19.0732 7.97124C19.0448 8.10149 19.0412 8.23208 19.0412 8.36407V9.24015V9.66482V9.78962C19.0412 9.82303 19.0325 9.82566 19.0724 9.82566H19.6966H20.3186H20.9443C21.1486 9.82566 21.3545 9.81855 21.5582 9.83564C21.7589 9.85252 21.9632 9.90536 22.1254 10.0194C22.3536 10.1798 22.4465 10.4565 22.3684 10.711C22.2936 10.9554 22.0691 11.1192 21.8126 11.1872C21.7842 11.1948 21.7554 11.2012 21.7265 11.2067C21.7097 11.21 21.6871 11.2094 21.6718 11.2159C21.6643 11.2191 21.6451 11.2232 21.6592 11.2355C21.6627 11.2386 21.6775 11.2386 21.6885 11.2385C21.693 11.2384 21.6968 11.2384 21.699 11.2386C21.7795 11.2458 21.8596 11.2587 21.9377 11.2784C22.1766 11.3386 22.4085 11.4681 22.5192 11.6807C22.6502 11.9324 22.5834 12.244 22.3718 12.4392C22.2051 12.593 21.9724 12.6714 21.7421 12.6974C21.6266 12.7104 21.5103 12.7078 21.3942 12.7078H20.7685H20.1427H19.5208H19.2079H19.1297C19.1118 12.7078 19.0614 12.6996 19.0468 12.7078C19.0382 12.7126 19.0412 12.7196 19.0412 12.7323V13.2669V14.2104V15.1638V15.7281C19.0412 15.7337 19.037 15.7585 19.0412 15.7631C19.0461 15.7684 19.0881 15.7637 19.0984 15.7637H19.1766H19.4895H20.1115H20.7372H21.3609C21.7325 15.7637 22.0863 15.6746 22.3874 15.4662C22.7959 15.1837 23.0371 14.7346 23.0392 14.2632C23.0393 14.245 23.0393 14.2267 23.0393 14.2084V14.1818C23.0393 14.1414 23.0392 14.101 23.0392 14.0606V13.5637C23.0392 13.3231 23.0392 13.0826 23.0392 12.8421C23.0392 12.5466 23.0392 12.2511 23.0392 11.9556C23.0392 11.6295 23.0392 11.3034 23.0392 10.9773C23.0392 10.6399 23.0392 10.3025 23.0392 9.96509C23.0392 9.6397 23.0392 9.31435 23.0392 8.98896C23.0392 8.6988 23.0392 8.40869 23.0392 8.11854C23.0392 7.88317 23.0392 7.6478 23.0392 7.41243V6.94224C23.0392 6.88483 23.0392 6.82743 23.0392 6.76998H23.0328C22.834 6.77028 22.6351 6.76998 22.4363 6.76998H21.8126H21.1868C21.0632 6.76998 20.9375 6.76592 20.8123 6.76562H20.7855ZM20.0413 10.3762C20.0374 10.3891 20.0413 10.4178 20.0413 10.4318V10.9317V11.1654C20.0413 11.1849 20.0351 11.252 20.0446 11.2619C20.0527 11.2703 20.0881 11.2619 20.0986 11.2619H20.1569H20.2691H20.4921C20.5653 11.2619 20.6387 11.2638 20.7119 11.2619C20.8025 11.2595 20.8904 11.2204 20.9548 11.1247C21.0278 11.0163 21.0538 10.857 21.0316 10.7108C21.0215 10.6461 21.002 10.5855 20.9733 10.5336C20.9181 10.4342 20.8358 10.3792 20.7488 10.369C20.7074 10.3642 20.6657 10.3664 20.6242 10.3664H20.4012H20.1739H20.0633C20.0573 10.3664 20.0533 10.3656 20.0504 10.3656C20.046 10.3656 20.044 10.3674 20.0413 10.3762ZM20.4882 11.266H20.0411C20.0411 11.2743 20.0411 11.2825 20.0411 11.2908V11.7381V12.0023V12.0988C20.0411 12.1125 20.0371 12.1416 20.0411 12.1542C20.0471 12.1734 20.1027 12.1626 20.1205 12.1626H20.2336H20.4572H20.6821C20.7551 12.1626 20.8252 12.1561 20.89 12.1008C20.9687 12.0335 21.0223 11.9161 21.0357 11.7852C21.0512 11.6356 21.0162 11.4808 20.9381 11.3793C20.8749 11.2971 20.7965 11.2669 20.7131 11.266C20.6881 11.2657 20.6631 11.2656 20.6381 11.2656C20.5881 11.2656 20.5382 11.266 20.4882 11.266Z" fill="url(#paint0_linear)"/>
<mask id="mask0" mask-type="alpha" maskUnits="userSpaceOnUse" x="19" y="6" width="5" height="10">
<path fill-rule="evenodd" clip-rule="evenodd" d="M20.7855 6.76562C20.6839 6.76588 20.5825 6.76897 20.4828 6.77912C20.0927 6.81876 19.7257 6.99283 19.4621 7.26141C19.2665 7.46065 19.1308 7.7074 19.0732 7.97124C19.0448 8.10149 19.0412 8.23208 19.0412 8.36407V9.24015V9.66482V9.78962C19.0412 9.82303 19.0325 9.82566 19.0724 9.82566H19.6966H20.3186H20.9443C21.1486 9.82566 21.3545 9.81855 21.5582 9.83564C21.7589 9.85252 21.9632 9.90536 22.1254 10.0194C22.3536 10.1798 22.4465 10.4565 22.3684 10.711C22.2936 10.9554 22.0691 11.1192 21.8126 11.1872C21.7842 11.1948 21.7554 11.2012 21.7265 11.2067C21.7097 11.21 21.6871 11.2094 21.6718 11.2159C21.6643 11.2191 21.6451 11.2232 21.6592 11.2355C21.6627 11.2386 21.6775 11.2386 21.6885 11.2385C21.693 11.2384 21.6968 11.2384 21.699 11.2386C21.7795 11.2458 21.8596 11.2587 21.9377 11.2784C22.1766 11.3386 22.4085 11.4681 22.5192 11.6807C22.6502 11.9324 22.5834 12.244 22.3718 12.4392C22.2051 12.593 21.9724 12.6714 21.7421 12.6974C21.6266 12.7104 21.5103 12.7078 21.3942 12.7078H20.7685H20.1427H19.5208H19.2079H19.1297C19.1118 12.7078 19.0614 12.6996 19.0468 12.7078C19.0382 12.7126 19.0412 12.7196 19.0412 12.7323V13.2669V14.2104V15.1638V15.7281C19.0412 15.7337 19.037 15.7585 19.0412 15.7631C19.0461 15.7684 19.0881 15.7637 19.0984 15.7637H19.1766H19.4895H20.1115H20.7372H21.3609C21.7325 15.7637 22.0863 15.6746 22.3874 15.4662C22.7959 15.1837 23.0371 14.7346 23.0392 14.2632C23.0393 14.245 23.0393 14.2267 23.0393 14.2084V14.1818C23.0393 14.1414 23.0392 14.101 23.0392 14.0606V13.5637C23.0392 13.3231 23.0392 13.0826 23.0392 12.8421C23.0392 12.5466 23.0392 12.2511 23.0392 11.9556C23.0392 11.6295 23.0392 11.3034 23.0392 10.9773C23.0392 10.6399 23.0392 10.3025 23.0392 9.96509C23.0392 9.6397 23.0392 9.31435 23.0392 8.98896C23.0392 8.6988 23.0392 8.40869 23.0392 8.11854C23.0392 7.88317 23.0392 7.6478 23.0392 7.41243V6.94224C23.0392 6.88483 23.0392 6.82743 23.0392 6.76998H23.0328C22.834 6.77028 22.6351 6.76998 22.4363 6.76998H21.8126H21.1868C21.0632 6.76998 20.9375 6.76592 20.8123 6.76562H20.7855ZM20.0413 10.3762C20.0374 10.3891 20.0413 10.4178 20.0413 10.4318V10.9317V11.1654C20.0413 11.1849 20.0351 11.252 20.0446 11.2619C20.0527 11.2703 20.0881 11.2619 20.0986 11.2619H20.1569H20.2691H20.4921C20.5653 11.2619 20.6387 11.2638 20.7119 11.2619C20.8025 11.2595 20.8904 11.2204 20.9548 11.1247C21.0278 11.0163 21.0538 10.857 21.0316 10.7108C21.0215 10.6461 21.002 10.5855 20.9733 10.5336C20.9181 10.4342 20.8358 10.3792 20.7488 10.369C20.7074 10.3642 20.6657 10.3664 20.6242 10.3664H20.4012H20.1739H20.0633C20.0573 10.3664 20.0533 10.3656 20.0504 10.3656C20.046 10.3656 20.044 10.3674 20.0413 10.3762ZM20.4882 11.266H20.0411C20.0411 11.2743 20.0411 11.2825 20.0411 11.2908V11.7381V12.0023V12.0988C20.0411 12.1125 20.0371 12.1416 20.0411 12.1542C20.0471 12.1734 20.1027 12.1626 20.1205 12.1626H20.2336H20.4572H20.6821C20.7551 12.1626 20.8252 12.1561 20.89 12.1008C20.9687 12.0335 21.0223 11.9161 21.0357 11.7852C21.0512 11.6356 21.0162 11.4808 20.9381 11.3793C20.8749 11.2971 20.7965 11.2669 20.7131 11.266C20.6881 11.2657 20.6631 11.2656 20.6381 11.2656C20.5881 11.2656 20.5382 11.266 20.4882 11.266Z" fill="white"/>
</mask>
<g mask="url(#mask0)">
</g>
<path fill-rule="evenodd" clip-rule="evenodd" d="M10.398 6.78564C10.1678 6.82021 9.94689 6.90218 9.75383 7.023C9.309 7.30145 9.04282 7.77291 9.04085 8.26904C9.0403 8.41491 9.04085 8.56078 9.04085 8.70669V9.63577V10.716V11.607V11.8759V11.9469C9.04085 11.9744 9.04058 11.9686 9.07439 11.9835C9.11199 12 9.14978 12.016 9.18776 12.0316C9.4909 12.1559 9.8106 12.2505 10.1406 12.2877C10.3777 12.3145 10.631 12.322 10.855 12.2344C11.0344 12.1643 11.1774 12.0349 11.2509 11.8671C11.2982 11.7593 11.3117 11.6454 11.3117 11.53V10.2512V9.96335V9.87153C11.3117 9.86234 11.3061 9.83369 11.3117 9.82599C11.3187 9.81639 11.3742 9.82252 11.3901 9.82252H11.511H11.7493H12.7059V9.84889V11.1113C12.7059 11.2595 12.7062 11.4077 12.7059 11.5559C12.7056 11.7285 12.6782 11.9018 12.6018 12.0605C12.5258 12.2187 12.4037 12.3523 12.2529 12.454C11.8871 12.7007 11.4024 12.7649 10.9603 12.7834C10.644 12.7967 10.3265 12.7853 10.0116 12.7561C9.68616 12.7261 9.35694 12.6814 9.04085 12.6026V12.7049V13.4069V14.4309V15.3561V15.6504V15.733C9.04085 15.7374 9.03737 15.7591 9.04085 15.7626C9.04744 15.7693 9.10737 15.7627 9.11922 15.7627H9.19933H9.36335H9.68763H10.3376H10.9878C11.2634 15.7627 11.5461 15.7802 11.8156 15.7172C12.2867 15.6071 12.687 15.2989 12.8908 14.8909C13.0027 14.6669 13.0393 14.4288 13.0393 14.185V13.7831V13.106V12.2285V11.2298V10.1764V9.14692V8.21966V7.46183V6.95225V6.76575H12.8777H12.2023H11.5266H10.853C10.823 6.76575 10.793 6.76562 10.763 6.76562C10.6409 6.76562 10.5191 6.76744 10.398 6.78564Z" fill="url(#paint1_linear)"/>
<mask id="mask1" mask-type="alpha" maskUnits="userSpaceOnUse" x="9" y="6" width="5" height="10">
<path fill-rule="evenodd" clip-rule="evenodd" d="M10.398 6.78564C10.1678 6.82021 9.94689 6.90218 9.75383 7.023C9.309 7.30145 9.04282 7.77291 9.04085 8.26904C9.0403 8.41491 9.04085 8.56078 9.04085 8.70669V9.63577V10.716V11.607V11.8759V11.9469C9.04085 11.9744 9.04058 11.9686 9.07439 11.9835C9.11199 12 9.14978 12.016 9.18776 12.0316C9.4909 12.1559 9.8106 12.2505 10.1406 12.2877C10.3777 12.3145 10.631 12.322 10.855 12.2344C11.0344 12.1643 11.1774 12.0349 11.2509 11.8671C11.2982 11.7593 11.3117 11.6454 11.3117 11.53V10.2512V9.96335V9.87153C11.3117 9.86234 11.3061 9.83369 11.3117 9.82599C11.3187 9.81639 11.3742 9.82252 11.3901 9.82252H11.511H11.7493H12.7059V9.84889V11.1113C12.7059 11.2595 12.7062 11.4077 12.7059 11.5559C12.7056 11.7285 12.6782 11.9018 12.6018 12.0605C12.5258 12.2187 12.4037 12.3523 12.2529 12.454C11.8871 12.7007 11.4024 12.7649 10.9603 12.7834C10.644 12.7967 10.3265 12.7853 10.0116 12.7561C9.68616 12.7261 9.35694 12.6814 9.04085 12.6026V12.7049V13.4069V14.4309V15.3561V15.6504V15.733C9.04085 15.7374 9.03737 15.7591 9.04085 15.7626C9.04744 15.7693 9.10737 15.7627 9.11922 15.7627H9.19933H9.36335H9.68763H10.3376H10.9878C11.2634 15.7627 11.5461 15.7802 11.8156 15.7172C12.2867 15.6071 12.687 15.2989 12.8908 14.8909C13.0027 14.6669 13.0393 14.4288 13.0393 14.185V13.7831V13.106V12.2285V11.2298V10.1764V9.14692V8.21966V7.46183V6.95225V6.76575H12.8777H12.2023H11.5266H10.853C10.823 6.76575 10.793 6.76562 10.763 6.76562C10.6409 6.76562 10.5191 6.76744 10.398 6.78564Z" fill="white"/>
</mask>
<g mask="url(#mask1)">
</g>
<path fill-rule="evenodd" clip-rule="evenodd" d="M15.5587 6.76935C15.3833 6.77963 15.2098 6.81623 15.0473 6.87808C14.689 7.01462 14.3911 7.26945 14.2156 7.58918C14.1007 7.79853 14.0426 8.03123 14.0415 8.26579C14.0414 8.30375 14.0415 8.3417 14.0415 8.37969V9.04522V10.2284C14.0525 10.2196 14.0637 10.2111 14.0751 10.2026C14.1152 10.1725 14.157 10.1444 14.2 10.1181C14.4679 9.95432 14.7806 9.8626 15.0942 9.80844C15.3495 9.76435 15.6095 9.7454 15.869 9.74079C16.1242 9.7363 16.3803 9.74434 16.6342 9.76977C16.8932 9.79566 17.1507 9.83607 17.4054 9.88659C17.4367 9.89281 17.468 9.89915 17.4992 9.90575C17.5159 9.90931 17.5798 9.91413 17.5887 9.92598C17.5951 9.93444 17.5887 9.9682 17.5887 9.97798V10.1V10.56C17.5525 10.5431 17.5162 10.5266 17.4795 10.5106C17.2023 10.3894 16.9102 10.2994 16.607 10.2551C16.1996 10.1956 15.7387 10.1972 15.3869 10.4227C15.0473 10.6403 14.9285 11.0265 14.9652 11.3938C15.0009 11.7512 15.2146 12.0576 15.5743 12.2005C15.9297 12.3416 16.3421 12.3226 16.7143 12.2545C17.0196 12.1987 17.3108 12.0964 17.5887 11.9681V12.0136V12.5497C17.5887 12.5597 17.5952 12.5936 17.5887 12.6022C17.58 12.6137 17.5151 12.6186 17.4992 12.622C17.4342 12.6357 17.369 12.6486 17.3037 12.6607C17.047 12.7085 16.7877 12.7464 16.5269 12.768C16.2716 12.7891 16.0137 12.7933 15.7576 12.7843C15.4962 12.7753 15.2345 12.7503 14.9788 12.6979C14.6418 12.6289 14.3063 12.5101 14.0415 12.3V12.3988V13.0892V14.1195V15.1225V15.7172C14.0415 15.7242 14.0365 15.7536 14.0415 15.7593C14.0525 15.7715 14.1434 15.7615 14.1647 15.7615H14.4967H15.1642H15.8282C16.0625 15.7615 16.3009 15.773 16.5347 15.7576C16.9586 15.7296 17.3601 15.5443 17.6396 15.248C17.9073 14.9642 18.0393 14.605 18.0393 14.2306V13.8949V13.2531V12.3862V11.3746V10.3029V9.24268V8.28204V7.49352V6.96148V6.7663H17.9167H16.8861H15.8594C15.8109 6.7663 15.7622 6.76562 15.7135 6.76562C15.6618 6.76562 15.6101 6.76639 15.5587 6.76935Z" fill="url(#paint2_linear)"/>
<mask id="mask2" mask-type="alpha" maskUnits="userSpaceOnUse" x="14" y="6" width="5" height="10">
<path fill-rule="evenodd" clip-rule="evenodd" d="M15.5587 6.76935C15.3833 6.77963 15.2098 6.81623 15.0473 6.87808C14.689 7.01462 14.3911 7.26945 14.2156 7.58918C14.1007 7.79853 14.0426 8.03123 14.0415 8.26579C14.0414 8.30375 14.0415 8.3417 14.0415 8.37969V9.04522V10.2284C14.0525 10.2196 14.0637 10.2111 14.0751 10.2026C14.1152 10.1725 14.157 10.1444 14.2 10.1181C14.4679 9.95432 14.7806 9.8626 15.0942 9.80844C15.3495 9.76435 15.6095 9.7454 15.869 9.74079C16.1242 9.7363 16.3803 9.74434 16.6342 9.76977C16.8932 9.79566 17.1507 9.83607 17.4054 9.88659C17.4367 9.89281 17.468 9.89915 17.4992 9.90575C17.5159 9.90931 17.5798 9.91413 17.5887 9.92598C17.5951 9.93444 17.5887 9.9682 17.5887 9.97798V10.1V10.56C17.5525 10.5431 17.5162 10.5266 17.4795 10.5106C17.2023 10.3894 16.9102 10.2994 16.607 10.2551C16.1996 10.1956 15.7387 10.1972 15.3869 10.4227C15.0473 10.6403 14.9285 11.0265 14.9652 11.3938C15.0009 11.7512 15.2146 12.0576 15.5743 12.2005C15.9297 12.3416 16.3421 12.3226 16.7143 12.2545C17.0196 12.1987 17.3108 12.0964 17.5887 11.9681V12.0136V12.5497C17.5887 12.5597 17.5952 12.5936 17.5887 12.6022C17.58 12.6137 17.5151 12.6186 17.4992 12.622C17.4342 12.6357 17.369 12.6486 17.3037 12.6607C17.047 12.7085 16.7877 12.7464 16.5269 12.768C16.2716 12.7891 16.0137 12.7933 15.7576 12.7843C15.4962 12.7753 15.2345 12.7503 14.9788 12.6979C14.6418 12.6289 14.3063 12.5101 14.0415 12.3V12.3988V13.0892V14.1195V15.1225V15.7172C14.0415 15.7242 14.0365 15.7536 14.0415 15.7593C14.0525 15.7715 14.1434 15.7615 14.1647 15.7615H14.4967H15.1642H15.8282C16.0625 15.7615 16.3009 15.773 16.5347 15.7576C16.9586 15.7296 17.3601 15.5443 17.6396 15.248C17.9073 14.9642 18.0393 14.605 18.0393 14.2306V13.8949V13.2531V12.3862V11.3746V10.3029V9.24268V8.28204V7.49352V6.96148V6.7663H17.9167H16.8861H15.8594C15.8109 6.7663 15.7622 6.76562 15.7135 6.76562C15.6618 6.76562 15.6101 6.76639 15.5587 6.76935Z" fill="white"/>
</mask>
<g mask="url(#mask2)">
</g>
</g>
<defs>
<linearGradient id="paint0_linear" x1="23.0393" y1="6.37639" x2="19.1745" y2="6.37639" gradientUnits="userSpaceOnUse">
<stop stop-color="#43C311"/>
<stop offset="1" stop-color="#288C00"/>
</linearGradient>
<linearGradient id="paint1_linear" x1="9.04962" y1="15.7881" x2="13.0896" y2="15.7881" gradientUnits="userSpaceOnUse">
<stop stop-color="#21469E"/>
<stop offset="1" stop-color="#1E81EB"/>
</linearGradient>
<linearGradient id="paint2_linear" x1="18.0393" y1="6.76562" x2="14.0393" y2="6.76562" gradientUnits="userSpaceOnUse">
<stop stop-color="#F42D3E"/>
<stop offset="1" stop-color="#9C0017"/>
</linearGradient>
<clipPath id="clip0">
<rect width="32" height="21" fill="white" transform="translate(0.0393066 0.765625)"/>
</clipPath>
</defs>
</svg>
