<svg width="685" height="582" viewBox="0 0 685 582" fill="none" xmlns="http://www.w3.org/2000/svg">
<path d="M243.457 72.5042L372 60.6637C385.33 59.4207 397.932 65.3668 404.933 76.4028L472.238 181.809C479.239 192.845 479.591 206.81 473.263 219.089L412.025 336.336C405.696 348.615 393.446 356.633 380.117 357.876L251.574 369.716C238.244 370.959 225.642 365.013 218.641 353.977L151.336 248.571C144.336 237.535 143.982 223.571 150.311 211.291L211.549 94.0446C217.987 82.1482 230.128 73.7473 243.457 72.5042ZM165.324 212.2C159.695 223.186 160.109 235.867 166.143 245.766L226.558 340.519C232.981 350.283 243.948 355.743 256.001 354.521L371.853 343.913C383.905 342.69 394.847 335.334 400.477 324.348L455.525 219.122C461.154 208.136 460.74 195.454 454.706 185.556L394.292 90.8031C387.868 81.0392 376.901 75.5791 364.849 76.8013L249.246 87.5332C237.193 88.7554 226.251 96.1114 220.622 107.097L165.324 212.2Z" fill="#0F0F0F"/>
<path d="M185.008 480.197L167.133 471.481L228.499 355.202L246.373 363.918L185.008 480.197Z" fill="#0F0F0F"/>
<path d="M603.433 208.285L600.276 233.571L470.94 221.821L474.098 196.535L603.433 208.285Z" fill="#0F0F0F"/>
<path d="M602.633 240.065C594.097 235.854 591.104 225.228 595.948 216.331C600.791 207.434 611.637 203.635 620.173 207.846C628.709 212.056 631.702 222.682 626.858 231.579C622.015 240.476 611.169 244.275 602.633 240.065Z" fill="#0F0F0F"/>
<path d="M478.573 449.044L458.567 462.385L387.834 355.422L407.84 342.081L478.573 449.044Z" fill="#0F0F0F"/>
<path d="M465.752 480.451C457.217 476.241 454.223 465.613 459.066 456.712C463.909 447.812 474.755 444.01 483.291 448.221C491.827 452.431 494.82 463.06 489.977 471.96C485.134 480.86 474.288 484.662 465.752 480.451Z" fill="#0F0F0F"/>
</svg>
