<svg width="33" height="22" viewBox="0 0 33 22" fill="none" xmlns="http://www.w3.org/2000/svg">
<g clip-path="url(#clip0)">
<path fill-rule="evenodd" clip-rule="evenodd" d="M0.0393066 2.26563C0.0393066 1.4372 0.71088 0.765625 1.53931 0.765625H30.5393C31.3677 0.765625 32.0393 1.4372 32.0393 2.26563V20.2656C32.0393 21.0941 31.3677 21.7656 30.5393 21.7656H1.53931C0.71088 21.7656 0.0393066 21.0941 0.0393066 20.2656V2.26563Z" fill="#F4F6F7"/>
<path fill-rule="evenodd" clip-rule="evenodd" d="M12.5393 16.7656C15.5769 16.7656 18.0393 14.3032 18.0393 11.2656C18.0393 8.22806 15.5769 5.76562 12.5393 5.76562C9.50174 5.76562 7.03931 8.22806 7.03931 11.2656C7.03931 14.3032 9.50174 16.7656 12.5393 16.7656Z" fill="#D8232A"/>
<path fill-rule="evenodd" clip-rule="evenodd" d="M16.0393 15.5085C16.9902 16.2938 18.2097 16.7656 19.5393 16.7656C22.5769 16.7656 25.0393 14.3032 25.0393 11.2656C25.0393 8.22806 22.5769 5.76562 19.5393 5.76562C18.2097 5.76562 16.9902 6.23744 16.0393 7.02279C17.2608 8.03158 18.0393 9.55769 18.0393 11.2656C18.0393 12.9736 17.2608 14.4997 16.0393 15.5085Z" fill="#ED9F2D"/>
<path fill-rule="evenodd" clip-rule="evenodd" d="M16.0393 7.02271C14.8178 8.0315 14.0393 9.55761 14.0393 11.2655C14.0393 12.9735 14.8178 14.4996 16.0393 15.5084C17.2608 14.4996 18.0393 12.9735 18.0393 11.2655C18.0393 9.55761 17.2608 8.0315 16.0393 7.02271Z" fill="#D8232A"/>
<mask id="mask0" mask-type="alpha" maskUnits="userSpaceOnUse" x="14" y="7" width="5" height="9">
<path fill-rule="evenodd" clip-rule="evenodd" d="M16.0393 7.02271C14.8178 8.0315 14.0393 9.55761 14.0393 11.2655C14.0393 12.9735 14.8178 14.4996 16.0393 15.5084C17.2608 14.4996 18.0393 12.9735 18.0393 11.2655C18.0393 9.55761 17.2608 8.0315 16.0393 7.02271Z" fill="white"/>
</mask>
<g mask="url(#mask0)">
<path fill-rule="evenodd" clip-rule="evenodd" d="M13.0393 7.76562H19.0393V8.76562H13.0393V7.76562ZM13.0393 9.76562H19.0393V10.7656H13.0393V9.76562ZM19.0393 11.7656H13.0393V12.7656H19.0393V11.7656ZM13.0393 13.7656H19.0393V14.7656H13.0393V13.7656ZM19.0393 15.7656H13.0393V16.7656H19.0393V15.7656Z" fill="#ED9F2D"/>
</g>
<path fill-rule="evenodd" clip-rule="evenodd" d="M0.0393066 2.26563C0.0393066 1.4372 0.71088 0.765625 1.53931 0.765625H30.5393C31.3677 0.765625 32.0393 1.4372 32.0393 2.26563V20.2656C32.0393 21.0941 31.3677 21.7656 30.5393 21.7656H1.53931C0.71088 21.7656 0.0393066 21.0941 0.0393066 20.2656V2.26563Z" fill="#E5E5E5" fill-opacity="0.01"/>
</g>
<defs>
<clipPath id="clip0">
<rect width="32" height="21" fill="white" transform="translate(0.0393066 0.765625)"/>
</clipPath>
</defs>
</svg>
