<svg width="22" height="22" viewBox="0 0 22 22" fill="none" xmlns="http://www.w3.org/2000/svg">
<g clip-path="url(#clip0)">
<path d="M18.8813 6.98877C19.7353 6.38239 20.4537 5.62552 21.0391 4.75402V4.75314C20.2577 5.09527 19.4264 5.32277 18.5584 5.43302C19.4509 4.90014 20.1326 4.06277 20.4528 3.05389C19.6207 3.55002 18.7019 3.90002 17.7228 4.09602C16.9327 3.25427 15.8066 2.73364 14.5781 2.73364C12.1946 2.73364 10.2757 4.66827 10.2757 7.03952C10.2757 7.38077 10.3046 7.70889 10.3754 8.02127C6.79669 7.84627 3.62919 6.13127 1.50119 3.51764C1.13019 4.16252 0.911438 4.90014 0.911438 5.69377C0.911438 7.18477 1.67881 8.50602 2.82419 9.27164C2.13206 9.25852 1.45394 9.05727 0.879062 8.74139V8.78864C0.879062 10.8808 2.37094 12.6185 4.32831 13.0193C3.97744 13.1155 3.59594 13.161 3.19956 13.161C2.92394 13.161 2.64569 13.1453 2.38494 13.0875C2.94231 14.792 4.52606 16.0459 6.40731 16.087C4.94256 17.2324 3.08231 17.9228 1.06894 17.9228C0.716313 17.9228 0.377687 17.907 0.0390625 17.8641C1.94656 19.0935 4.20581 19.7961 6.64356 19.7961C14.2412 19.7961 19.1928 13.4576 18.8813 6.98877Z" fill="#8A5137"/>
</g>
<defs>
<clipPath id="clip0">
<rect width="21" height="21" fill="white" transform="translate(0.0390625 0.764893)"/>
</clipPath>
</defs>
</svg>
