<svg width="33" height="22" viewBox="0 0 33 22" fill="none" xmlns="http://www.w3.org/2000/svg">
<g clip-path="url(#clip0)">
<path fill-rule="evenodd" clip-rule="evenodd" d="M0.0393066 2.26563C0.0393066 1.4372 0.71088 0.765625 1.53931 0.765625H30.5393C31.3677 0.765625 32.0393 1.4372 32.0393 2.26563V20.2656C32.0393 21.0941 31.3677 21.7656 30.5393 21.7656H1.53931C0.71088 21.7656 0.0393066 21.0941 0.0393066 20.2656V2.26563Z" fill="#F4F6F7"/>
<path fill-rule="evenodd" clip-rule="evenodd" d="M0.0393066 2.26562C0.0393066 1.4372 0.71088 0.765625 1.53931 0.765625H30.5393C31.3677 0.765625 32.0393 1.4372 32.0393 2.26562V5.76562H0.0393066V2.26562Z" fill="#4095DB"/>
<path fill-rule="evenodd" clip-rule="evenodd" d="M0.0393066 16.7656H32.0393V20.2656C32.0393 21.0941 31.3677 21.7656 30.5393 21.7656H1.53931C0.71088 21.7656 0.0393066 21.0941 0.0393066 20.2656V16.7656Z" fill="#F4B662"/>
<path fill-rule="evenodd" clip-rule="evenodd" d="M20.1798 8.05024C19.8684 7.91414 19.3787 7.76562 18.7687 7.76562C17.2118 7.76562 16.1159 8.68598 16.1068 10.0037C16.0969 10.9784 16.8888 11.5221 17.4859 11.846C18.0995 12.1781 18.3057 12.3906 18.3032 12.6876C18.299 13.1417 17.8135 13.3498 17.3607 13.3498C16.7302 13.3498 16.3953 13.2474 15.8774 12.9942L15.6748 12.8863L15.4546 14.4042C15.8218 14.5931 16.5025 14.757 17.209 14.7656C18.8636 14.7656 19.9388 13.8565 19.9514 12.4493C19.957 11.6764 19.5374 11.0904 18.6286 10.6067C18.0783 10.2923 17.7406 10.084 17.7445 9.76577C17.7448 9.48385 18.0298 9.18221 18.6466 9.18221C19.1617 9.173 19.5345 9.30489 19.8251 9.44269L19.9665 9.52031L20.1798 8.05024ZM12.8929 14.6651L13.8781 7.8838H15.4528L14.4677 14.6651H12.8929ZM22.9039 10.3655C22.9039 10.3655 22.4071 11.8711 22.2766 12.2608H23.5839C23.5217 11.9218 23.2195 10.3033 23.2195 10.3033L23.1133 9.7184C23.0712 9.8528 23.0125 10.031 22.9679 10.1664C22.9282 10.2871 22.8996 10.3739 22.9039 10.3655ZM24.2194 7.89071H23.0024C22.6249 7.89071 22.3424 8.01069 22.177 8.45284L19.8384 14.6675H21.4924C21.4924 14.6675 21.7622 13.8315 21.8235 13.648C21.9083 13.648 22.3082 13.6488 22.7322 13.6496C23.2103 13.6505 23.7189 13.6515 23.8404 13.6515C23.8876 13.8881 24.0322 14.6675 24.0322 14.6675H25.4938L24.2194 7.89071ZM11.5718 7.88951L10.0305 12.5127L9.86543 11.5729L9.31359 8.45704C9.21839 8.02731 8.94171 7.89992 8.59972 7.8849H6.06029L6.03931 8.02541C6.65712 8.20103 7.20957 8.45428 7.69372 8.76926L9.0941 14.6592L10.7607 14.6581L13.2406 7.88951H11.5718Z" fill="#0071CE"/>
<path fill-rule="evenodd" clip-rule="evenodd" d="M0.0393066 2.26563C0.0393066 1.4372 0.71088 0.765625 1.53931 0.765625H30.5393C31.3677 0.765625 32.0393 1.4372 32.0393 2.26563V20.2656C32.0393 21.0941 31.3677 21.7656 30.5393 21.7656H1.53931C0.71088 21.7656 0.0393066 21.0941 0.0393066 20.2656V2.26563Z" fill="#E5E5E5" fill-opacity="0.01"/>
</g>
<defs>
<clipPath id="clip0">
<rect width="32" height="21" fill="white" transform="translate(0.0393066 0.765625)"/>
</clipPath>
</defs>
</svg>
