<svg width="48" height="48" viewBox="0 0 48 48" fill="none" xmlns="http://www.w3.org/2000/svg">
<g clip-path="url(#clip0)">
<path d="M6.30285 31.0268L8.71743 32.8547C8.73753 32.8708 8.75726 32.8872 8.77792 32.9028L10.3374 34.0812C10.3374 34.0812 16.5243 38.7637 16.5284 38.7667C17.0838 39.183 17.7731 39.4299 18.5191 39.4299H25.4624C25.8496 39.4299 26.1636 39.116 26.1636 38.7286C26.1636 38.3412 25.8496 38.0274 25.4624 38.0274H18.5191C17.4587 38.0274 16.596 37.1647 16.596 36.1044C16.596 35.0441 17.4587 34.1815 18.5191 34.1815H28.183C28.5702 34.1815 28.8842 33.8676 28.8842 33.4802C28.8842 33.0928 28.5702 32.779 28.183 32.779H24.8007V28.6616C24.8007 28.2743 24.4868 27.9604 24.0995 27.9604C23.7122 27.9604 23.3982 28.2743 23.3982 28.6616V32.779H18.5191C18.4955 32.779 18.4723 32.7803 18.4489 32.7807V12.2H23.3983V25.6731C23.3983 26.0604 23.7123 26.3743 24.0996 26.3743C24.4869 26.3743 24.8008 26.0604 24.8008 25.6731V12.1334C25.8624 11.8792 26.654 10.923 26.654 9.7847V3.07824C26.6539 1.38092 25.273 0 23.5757 0H5.33979C4.95251 0 4.63853 0.313883 4.63853 0.701258C4.63853 1.08863 4.95251 1.40252 5.33979 1.40252H23.5757C24.4997 1.40252 25.2514 2.15427 25.2514 3.07824V7.0541H16.2136V5.07833C16.2136 4.69095 15.8996 4.37707 15.5123 4.37707H12.9838C12.5965 4.37707 12.2825 4.69095 12.2825 5.07833C12.2825 5.4657 12.5965 5.77958 12.9838 5.77958H14.8111V9.78461C14.8111 11.0558 15.7985 12.1001 17.0463 12.1925V28.0692L16.5475 27.6922C15.5162 26.9132 14.0432 27.1181 13.2641 28.1493C13.0624 28.4162 12.9272 28.7129 12.8547 29.0193L12.1274 28.4698C10.9052 27.5464 9.15959 27.7895 8.23618 29.0115C7.94146 29.4015 7.75923 29.8519 7.69789 30.3239L7.14932 29.9086C6.01637 29.0507 4.43049 29.1218 3.37833 30.0766C2.77113 30.6279 2.42714 31.3829 2.40975 32.2027C2.39236 33.0225 2.704 33.7915 3.28735 34.3679L7.4143 38.4462C7.68985 38.7183 8.13379 38.7155 8.40597 38.4403C8.67825 38.1648 8.67554 37.7209 8.40008 37.4486L4.27313 33.3704C3.96664 33.0675 3.80282 32.6633 3.81189 32.2324C3.82105 31.8017 4.00179 31.4048 4.32091 31.1152C4.87406 30.6131 5.70753 30.5762 6.30285 31.0268ZM16.2136 9.78461V8.45661H25.2514V9.78461C25.2514 10.3432 24.797 10.7975 24.2385 10.7975H17.2265C16.668 10.7975 16.2136 10.3432 16.2136 9.78461ZM14.3831 28.995C14.6962 28.5808 15.2878 28.4986 15.702 28.8113L17.0463 29.8272V32.1868L14.5555 30.3047C14.1514 29.9893 14.073 29.4053 14.3831 28.995ZM9.35529 29.8571C9.81242 29.2519 10.6769 29.1316 11.282 29.5888L13.6994 31.4154C13.7067 31.4211 13.7137 31.4271 13.7211 31.4328L16.4559 33.4992C15.7144 34.0876 15.2292 34.9848 15.1963 35.9948L11.2061 32.9797L9.59521 31.7603C9.0156 31.2975 8.90546 30.4523 9.35529 29.8571Z" fill="#8A5137"/>
<path d="M35.7086 46.7604L32.1734 43.8126C32.0473 43.7074 31.8884 43.6499 31.7243 43.6499H15.8986C15.1098 43.6499 14.3665 43.3445 13.8055 42.7902L10.529 39.5526C10.2535 39.2803 9.80951 39.283 9.53733 39.5585C9.26515 39.8339 9.26777 40.2779 9.54322 40.5501L12.8197 43.7878C13.6448 44.6033 14.7383 45.0523 15.8986 45.0523H31.4702L34.8103 47.8374C34.9414 47.9468 35.1006 48.0001 35.259 48.0001C35.4598 48.0001 35.6593 47.9143 35.7979 47.7479C36.0461 47.4505 36.006 47.0084 35.7086 46.7604Z" fill="#8A5137"/>
<path d="M9.9952 4.37708H5.33978C4.9525 4.37708 4.63852 4.69096 4.63852 5.07833C4.63852 5.46571 4.9525 5.77959 5.33978 5.77959H9.99529C10.3826 5.77959 10.6966 5.46571 10.6966 5.07833C10.6966 4.69096 10.3826 4.37708 9.9952 4.37708Z" fill="#8A5137"/>
<path d="M22.0812 19.4694V14.7592C22.0812 14.3719 21.7672 14.058 21.3799 14.058C20.9926 14.058 20.6786 14.3719 20.6786 14.7592V19.4694C20.6786 19.8567 20.9926 20.1706 21.3799 20.1706C21.7672 20.1706 22.0812 19.8566 22.0812 19.4694Z" fill="#8A5137"/>
<path d="M19.7067 27.9198V29.4036C19.7067 29.791 20.0207 30.1049 20.408 30.1049C20.7953 30.1049 21.1092 29.791 21.1092 29.4036V27.9198C21.1092 27.5324 20.7953 27.2185 20.408 27.2185C20.0207 27.2185 19.7067 27.5324 19.7067 27.9198Z" fill="#8A5137"/>
<path d="M28.4127 18.4937C28.9599 18.6898 30.4158 19.2117 31.5334 19.2117C31.7904 19.2117 32.0295 19.1841 32.2355 19.1186C33.7032 18.6522 34.5177 17.0787 34.0512 15.6109C33.5847 14.1434 32.0112 13.3287 30.5436 13.7953C30.2709 13.8819 29.4415 14.1456 27.783 16.5126C27.5471 16.8495 27.483 17.2672 27.6076 17.659C27.732 18.0506 28.0254 18.3548 28.4127 18.4937ZM30.9685 15.1319C31.6991 14.8998 32.4824 15.3053 32.7147 16.0358C32.8272 16.3897 32.7951 16.7663 32.6244 17.0961C32.4536 17.4259 32.1646 17.6695 31.8107 17.782C31.5177 17.8748 30.6089 17.78 29.0036 17.2152C29.9886 15.8273 30.6755 15.225 30.9685 15.1319Z" fill="#8A5137"/>
<path d="M31.1204 21.9123C30.9078 21.8989 30.2619 21.8607 28.5737 22.9956C28.2835 23.1907 28.105 23.5027 28.084 23.8515C28.0629 24.2005 28.2028 24.5317 28.4676 24.7603C30.0078 26.0893 30.6536 26.1282 30.8659 26.141H30.866C30.909 26.1436 30.9518 26.1448 30.9944 26.1448C32.1047 26.1448 33.0399 25.2766 33.1074 24.1538C33.1414 23.5891 32.9534 23.0449 32.5781 22.6214C32.2028 22.1981 31.6851 21.9462 31.1204 21.9123ZM31.7075 24.0696C31.6838 24.4633 31.3437 24.7653 30.9508 24.741C30.8508 24.7316 30.4441 24.5661 29.6815 23.9477C30.5133 23.4249 30.9374 23.3122 31.0362 23.3123C31.227 23.3238 31.4018 23.4089 31.5286 23.552C31.6554 23.695 31.7189 23.8787 31.7075 24.0696Z" fill="#8A5137"/>
<path d="M9.2588 17.5296C8.99082 18.1531 8.98184 18.8437 9.23336 19.474C9.48479 20.1044 9.96669 20.599 10.5903 20.8669C10.7167 20.9212 10.9802 21.0346 11.5744 21.0346C12.0975 21.0346 12.8767 20.9468 14.0439 20.6535C14.4204 20.5589 14.7243 20.3003 14.8776 19.9437C15.0307 19.5872 15.0093 19.1887 14.8187 18.8504C13.5569 16.611 12.8338 16.3003 12.5962 16.1982C11.9728 15.9303 11.2821 15.9212 10.6519 16.1728C10.0214 16.4242 9.52668 16.9061 9.2588 17.5296ZM10.5474 18.0833C10.6674 17.8039 10.889 17.588 11.1715 17.4754C11.308 17.4209 11.4507 17.3937 11.5934 17.3937C11.7459 17.3937 11.8982 17.4248 12.0425 17.4868C12.2287 17.5667 12.735 18.0497 13.4865 19.3461C12.0288 19.6933 11.3301 19.6583 11.144 19.5784C10.8647 19.4583 10.6488 19.2367 10.5361 18.9543C10.4234 18.672 10.4274 18.3627 10.5474 18.0833Z" fill="#8A5137"/>
<path d="M45.312 39.929L39.5426 35.5759C37.1521 33.7723 34.1861 32.7789 31.1914 32.7789H31.1715C30.7843 32.7789 30.4703 33.0928 30.4703 33.4802C30.4703 33.8676 30.7843 34.1814 31.1715 34.1814H31.1914C33.8833 34.1814 36.5492 35.0743 38.6979 36.6956L44.4673 41.0486C44.5938 41.1441 44.742 41.1901 44.8891 41.1901C45.1016 41.1901 45.3116 41.094 45.4494 40.9113C45.6827 40.602 45.6212 40.1622 45.312 39.929Z" fill="#8A5137"/>
</g>
<defs>
<clipPath id="clip0">
<rect width="48" height="48" fill="white"/>
</clipPath>
</defs>
</svg>
