<?xml version="1.0" encoding="utf-8"?>
<!-- Generator: Adobe Illustrator 23.0.1, SVG Export Plug-In . SVG Version: 6.00 Build 0)  -->
<svg version="1.1" id="Layer_1" xmlns="http://www.w3.org/2000/svg" xmlns:xlink="http://www.w3.org/1999/xlink" x="0px" y="0px"
	 viewBox="0 0 66 43" style="enable-background:new 0 0 66 43;" xml:space="preserve">
<style type="text/css">
	.st0{fill:#8A5137;}
	.st1{fill:#FFFFFF;}
</style>
<circle class="st0" cx="21.5" cy="21.5" r="21.5"/>
<path class="st0" d="M21.9,18c0.2-0.2,0.5-0.2,0.7,0c0.2,0.2,0.2,0.5,0,0.7l-2.8,2.8l2.8,2.8c0.2,0.2,0.2,0.5,0,0.7s-0.5,0.2-0.7,0
	l-3.2-3.2c-0.2-0.2-0.2-0.5,0-0.7L21.9,18z M66,22H19.1v-1H66V22z"/>
<path class="st1" d="M21.9,18c0.2-0.2,0.5-0.2,0.7,0c0.2,0.2,0.2,0.5,0,0.7l-2.8,2.8l2.8,2.8c0.2,0.2,0.2,0.5,0,0.7
	c-0.2,0.2-0.5,0.2-0.7,0l-3.2-3.2c-0.2-0.2-0.2-0.5,0-0.7L21.9,18z M43,22H19.1v-1H43V22z"/>
</svg>
