<svg width="47" height="47" viewBox="0 0 47 47" fill="none" xmlns="http://www.w3.org/2000/svg">
<path d="M36.3664 5.80401L38.0889 6.74609L39.031 8.46871C39.0942 8.58434 39.1874 8.68081 39.3008 8.74802C39.4142 8.81523 39.5435 8.85069 39.6753 8.85069C39.8071 8.85069 39.9365 8.81523 40.0498 8.74802C40.1632 8.68081 40.2564 8.58434 40.3197 8.46871L41.2618 6.74609L42.9843 5.80401C43.0999 5.74078 43.1964 5.6476 43.2636 5.53424C43.3308 5.42088 43.3663 5.29153 43.3663 5.15974C43.3663 5.02795 43.3309 4.89859 43.2637 4.78523C43.1964 4.67186 43.1 4.57868 42.9843 4.51544L41.2618 3.57327L40.3197 1.85073C40.2564 1.7351 40.1632 1.63863 40.0498 1.57142C39.9365 1.50421 39.8071 1.46875 39.6753 1.46875C39.5435 1.46875 39.4142 1.50421 39.3008 1.57142C39.1874 1.63863 39.0942 1.7351 39.031 1.85073L38.0889 3.57327L36.3663 4.51549C36.2507 4.57872 36.1542 4.67191 36.087 4.78527C36.0198 4.89864 35.9843 5.028 35.9843 5.15978C35.9844 5.29157 36.0198 5.42093 36.087 5.53429C36.1543 5.64764 36.2507 5.74082 36.3664 5.80405V5.80401ZM38.9824 4.75865C39.1056 4.69124 39.2069 4.58994 39.2743 4.46674L39.6753 3.73353L40.0763 4.46674C40.1437 4.58993 40.245 4.69124 40.3682 4.75865L41.1015 5.15972L40.3683 5.56071C40.245 5.62808 40.1437 5.72939 40.0763 5.85262L39.6753 6.58583L39.2743 5.85259C39.207 5.72936 39.1056 5.62805 38.9824 5.56068L38.2492 5.15969L38.9824 4.75865Z" fill="#8A5137"/>
<path d="M1.81256 19.0228L3.53507 19.9648L4.47715 21.6875C4.5404 21.8031 4.63359 21.8996 4.74696 21.9668C4.86032 22.034 4.98969 22.0694 5.12148 22.0694C5.25327 22.0694 5.38263 22.034 5.496 21.9668C5.60936 21.8996 5.70256 21.8031 5.7658 21.6875L6.70789 19.9648L8.43043 19.0228C8.54606 18.9595 8.64254 18.8663 8.70976 18.753C8.77698 18.6396 8.81245 18.5103 8.81245 18.3785C8.81246 18.2467 8.777 18.1173 8.70979 18.004C8.64258 17.8906 8.5461 17.7974 8.43047 17.7342L6.70792 16.792L5.76583 15.0695C5.70259 14.9539 5.60939 14.8574 5.49603 14.7902C5.38266 14.723 5.2533 14.6875 5.1215 14.6875C4.98971 14.6875 4.86035 14.723 4.74698 14.7902C4.63362 14.8574 4.54042 14.9539 4.47718 15.0695L3.53507 16.792L1.81252 17.7342C1.69689 17.7975 1.60041 17.8907 1.53319 18.004C1.46598 18.1174 1.43051 18.2467 1.43051 18.3785C1.43051 18.5103 1.46598 18.6397 1.53319 18.753C1.60041 18.8664 1.69689 18.9596 1.81252 19.0228L1.81256 19.0228ZM4.4286 17.9774C4.5518 17.91 4.6531 17.8087 4.72051 17.6855L5.1215 16.9523L5.52249 17.6855C5.5899 17.8087 5.6912 17.91 5.8144 17.9774L6.54761 18.3785L5.81445 18.7795C5.6912 18.8468 5.58987 18.9481 5.52248 19.0714L5.12149 19.8046L4.7205 19.0714C4.65311 18.9481 4.55178 18.8468 4.42853 18.7795L3.69536 18.3785L4.4286 17.9774Z" fill="#8A5137"/>
<path d="M45.4573 44.476L41.4406 36.2086L40.5546 33.5492L39.1611 34.0134L40.0623 36.7184C40.0724 36.7488 40.0845 36.7785 40.0985 36.8073L44.0624 44.9659V45.5313H45.5312V44.7969C45.5312 44.6857 45.5059 44.576 45.4573 44.476Z" fill="#8A5137"/>
<path d="M37.4387 37.7279C37.3801 37.5441 37.2515 37.3908 37.0807 37.301L34.0808 35.7245L30.5223 30.7568C30.68 30.6752 30.8551 30.6331 31.0327 30.6339C31.2103 30.6347 31.385 30.6785 31.542 30.7615L34.0458 32.0827C34.1778 32.1524 34.3279 32.1801 34.4761 32.1623C34.6244 32.1445 34.7636 32.0819 34.8754 31.983C34.9871 31.884 35.0661 31.7533 35.1017 31.6083C35.1373 31.4633 35.1278 31.3109 35.0746 31.1715L31.7232 22.3868C31.7186 22.3748 31.7138 22.363 31.7085 22.3512C31.607 22.1211 31.587 21.8633 31.6518 21.6203C31.7167 21.3773 31.8624 21.1637 32.0651 21.0147L36.5095 26.9614C36.5133 26.9663 36.517 26.9713 36.5208 26.9761C36.8836 27.4362 37.1583 27.9593 37.331 28.5192C37.3325 28.5243 37.3341 28.5293 37.3358 28.5343L38.6719 32.5445L40.0654 32.0804L38.7318 28.0775C38.5068 27.3513 38.1505 26.6726 37.6806 26.075L32.8941 19.6706C32.8033 19.5492 32.6773 19.4588 32.5331 19.4119C32.389 19.365 32.2339 19.3638 32.0891 19.4086L31.9566 19.4494C31.6116 19.5561 31.2929 19.7343 31.0213 19.9723C30.7498 20.2104 30.5315 20.503 30.3806 20.8311C30.2297 21.1592 30.1496 21.5154 30.1456 21.8765C30.1415 22.2376 30.2136 22.5955 30.3572 22.9269L33.0077 29.8743L32.2274 29.4625C31.7504 29.2102 31.2061 29.1147 30.6717 29.1894C30.1373 29.2642 29.64 29.5054 29.2506 29.8789L29.0202 30.0995C28.8925 30.2217 28.8132 30.3859 28.7969 30.5619C28.7805 30.7378 28.8281 30.9138 28.9311 31.0575L32.9881 36.7212C33.0547 36.8143 33.1421 36.8905 33.2434 36.9437L36.1308 38.4611L38.1875 44.9111V45.5313H39.6562V44.7969C39.6562 44.7212 39.6445 44.6459 39.6215 44.5738L37.4387 37.7279Z" fill="#8A5137"/>
<path d="M14.0119 36.7213L18.0689 31.0576C18.1718 30.9139 18.2195 30.7379 18.2031 30.5619C18.1868 30.3859 18.1074 30.2217 17.9798 30.0995L17.7494 29.8789C17.3599 29.5054 16.8627 29.2642 16.3283 29.1895C15.7939 29.1147 15.2496 29.2103 14.7726 29.4626L13.9923 29.8743L16.6428 22.9269C16.7863 22.5955 16.8584 22.2376 16.8544 21.8765C16.8504 21.5154 16.7703 21.1592 16.6194 20.8311C16.4685 20.503 16.2501 20.2104 15.9785 19.9723C15.7069 19.7343 15.3883 19.5561 15.0432 19.4495L14.9109 19.4086C14.766 19.3638 14.6109 19.365 14.4668 19.4119C14.3227 19.4588 14.1966 19.5492 14.1059 19.6706L9.31926 26.0751C8.84946 26.6728 8.49322 27.3515 8.26819 28.0777L5.55922 36.2089L1.54238 44.4897C1.49392 44.5895 1.46874 44.6991 1.46875 44.8101V45.5313H2.9375V44.9789L6.90157 36.8069C6.91547 36.7782 6.9275 36.7487 6.93757 36.7185L9.66413 28.5345C9.66583 28.5295 9.66745 28.5244 9.66902 28.5193C9.8417 27.9595 10.1164 27.4363 10.4791 26.9762C10.483 26.9714 10.4867 26.9665 10.4904 26.9615L14.9349 21.0148C15.1375 21.1638 15.2833 21.3774 15.3481 21.6204C15.4129 21.8634 15.393 22.1213 15.2914 22.3514C15.2862 22.3631 15.2813 22.375 15.2768 22.387L11.9253 31.1715C11.8721 31.311 11.8627 31.4634 11.8983 31.6083C11.9339 31.7533 12.0128 31.884 12.1246 31.983C12.2363 32.082 12.3756 32.1445 12.5238 32.1624C12.672 32.1802 12.8222 32.1524 12.9542 32.0827L15.458 30.7615C15.615 30.6785 15.7897 30.6348 15.9673 30.6339C16.1448 30.6331 16.3199 30.6753 16.4777 30.7568L12.9192 35.7245L9.91928 37.301C9.74851 37.3908 9.61992 37.5442 9.56127 37.728L7.37844 44.5738C7.35545 44.646 7.34375 44.7212 7.34375 44.797V45.5313H8.8125V44.9112L10.8691 38.4611L13.7565 36.9437C13.8578 36.8905 13.9453 36.8143 14.0119 36.7213Z" fill="#8A5137"/>
<path d="M27.9325 38.3824C27.9686 38.5136 28.0405 38.6323 28.1401 38.7251C28.2397 38.8178 28.3631 38.8811 28.4966 38.9078L35.106 40.2297L35.394 38.7894L29.2287 37.5563L28.2444 33.9772C28.2797 33.9486 28.3149 33.9198 28.3501 33.8906C28.6858 33.9715 29.0298 34.0122 29.375 34.0118V32.5431C27.7278 32.5431 26.4375 31.1519 26.4375 29.3758C26.4345 28.9526 26.5151 28.5329 26.6746 28.1409C26.8342 27.7488 27.0695 27.3922 27.3672 27.0913C27.4899 26.9677 27.5648 26.8046 27.5784 26.631C27.5919 26.4574 27.5434 26.2846 27.4413 26.1435C27.0402 25.5872 26.826 24.9181 26.8295 24.2323C26.8295 22.9667 27.5463 21.8249 28.6556 21.3233C28.7561 21.2778 28.8451 21.2103 28.9159 21.1258C28.9868 21.0413 29.0377 20.9418 29.0648 20.8349C29.092 20.728 29.0947 20.6164 29.0728 20.5083C29.0509 20.4002 29.0049 20.2984 28.9382 20.2105C28.7443 19.9559 28.6397 19.6444 28.6406 19.3243C28.6406 19.0626 28.7105 18.8056 28.8431 18.58C28.9757 18.3544 29.1662 18.1683 29.3949 18.041C29.6235 17.9137 29.8821 17.8498 30.1437 17.856C30.4053 17.8621 30.6606 17.9381 30.883 18.076C31 18.1487 31.1351 18.187 31.2728 18.1867C31.4105 18.1863 31.5454 18.1473 31.662 18.074C32.1256 17.7812 32.6625 17.6255 33.2109 17.625C34.8758 17.625 36.2304 19.0458 36.2304 20.7923C36.2314 21.3567 36.0867 21.9119 35.8102 22.404L37.0885 23.1273C37.5165 22.3657 37.7268 21.501 37.6962 20.6279C37.6656 19.7548 37.3954 18.9069 36.9151 18.1772C37.8553 16.5365 38.1565 14.6065 37.761 12.7574C37.3656 10.9082 36.3012 9.27025 34.7721 8.15773L34.5583 8.0022C34.0627 7.64178 33.5537 7.30757 33.0315 6.99956C32.8959 5.48796 31.8675 4.10468 30.1014 3.07448C28.3264 2.03898 25.9819 1.46875 23.5 1.46875C21.0181 1.46875 18.6736 2.03898 16.8986 3.07448C15.1324 4.10468 14.1041 5.48793 13.9685 6.99953C13.4467 7.3074 12.9378 7.64162 12.4417 8.0022L12.2279 8.15773C11.3159 8.81869 10.5618 9.67381 10.0202 10.6614L11.3069 11.3698C11.7448 10.5713 12.3544 9.87991 13.0919 9.34553L13.3056 9.19C16.2681 7.03552 19.837 5.875 23.5 5.875C27.163 5.875 30.7319 7.03552 33.6944 9.19L33.9082 9.34553C35.0815 10.1992 35.9184 11.4371 36.2734 12.844C36.6285 14.2508 36.4792 15.7376 35.8517 17.0458C35.2534 16.5923 34.5488 16.3 33.8053 16.1969C33.2124 14.3599 32.2442 12.881 30.9226 11.7957C29.4148 10.5574 27.4332 9.82267 25.033 9.61174L24.9045 11.0749C28.7017 11.4085 31.1208 13.1069 32.274 16.2582C31.9208 16.3361 31.5786 16.4574 31.2553 16.6194C30.7248 16.3954 30.1403 16.3321 29.5742 16.4373C29.0081 16.5425 28.4854 16.8117 28.0709 17.2114C27.6565 17.6111 27.3685 18.1237 27.2428 18.6856C27.1171 19.2474 27.1591 19.8339 27.3637 20.3721C26.4165 21.042 25.7479 22.036 25.4845 23.1659C25.2211 24.2957 25.3812 25.483 25.9345 26.5027C25.3034 27.327 24.9637 28.3376 24.9687 29.3758C24.9687 30.979 25.7048 32.3679 26.8486 33.1971C25.666 34.0533 24.502 34.5156 23.5 34.5156C22.498 34.5156 21.334 34.0533 20.1514 33.1972C21.2952 32.3679 22.0312 30.979 22.0312 29.3758C22.0363 28.3376 21.6966 27.3271 21.0655 26.5027C21.6187 25.483 21.7789 24.2958 21.5155 23.1659C21.2521 22.0361 20.5835 21.0421 19.6363 20.3722C19.8415 19.834 19.884 19.2473 19.7584 18.6851C19.6329 18.1229 19.345 17.61 18.9303 17.2102C18.5157 16.8103 17.9927 16.5411 17.4264 16.4361C16.86 16.331 16.2752 16.3948 15.7448 16.6194C15.4218 16.4575 15.08 16.3363 14.7272 16.2584C15.2998 14.7054 16.1947 13.4893 17.3948 12.6362C18.9076 11.5609 20.9616 11.0156 23.5 11.0156V9.54688C20.6506 9.54688 18.3102 10.1835 16.5438 11.4391C14.9804 12.5505 13.8553 14.1495 13.1946 16.1968C12.4511 16.3001 11.7465 16.5924 11.1483 17.0458C10.4962 15.6859 10.3614 14.1352 10.7691 12.6831L9.35507 12.2856C9.07951 13.2669 9.00212 14.2933 9.12741 15.3048C9.25271 16.3163 9.57819 17.2928 10.0849 18.1772C9.60459 18.9069 9.33437 19.7548 9.30378 20.6279C9.2732 21.501 9.48342 22.3656 9.91144 23.1272L11.1898 22.404C10.9133 21.9119 10.7685 21.3567 10.7696 20.7922C10.7696 19.0458 12.1242 17.625 13.7891 17.625C14.3374 17.6255 14.8744 17.7812 15.338 18.074C15.4546 18.1474 15.5895 18.1864 15.7272 18.1868C15.865 18.1871 16 18.1487 16.117 18.076C16.4084 17.8953 16.7538 17.8223 17.0935 17.8696C17.4331 17.9169 17.7454 18.0816 17.9763 18.335C18.2073 18.5885 18.3422 18.9147 18.3579 19.2573C18.3735 19.5998 18.2687 19.937 18.0618 20.2104C17.9951 20.2983 17.9492 20.4 17.9272 20.5082C17.9053 20.6163 17.908 20.7279 17.9352 20.8348C17.9623 20.9417 18.0132 21.0412 18.084 21.1257C18.1549 21.2103 18.2438 21.2778 18.3444 21.3232C19.4537 21.8249 20.1705 22.9668 20.1705 24.2323C20.174 24.918 19.9598 25.5872 19.5587 26.1434C19.4566 26.2846 19.4081 26.4573 19.4217 26.631C19.4352 26.8046 19.5101 26.9677 19.6328 27.0912C19.9305 27.3921 20.1658 27.7488 20.3254 28.1409C20.4849 28.5329 20.5655 28.9526 20.5625 29.3758C20.5625 31.1519 19.2722 32.5431 17.625 32.5431V34.0118C17.9702 34.0122 18.3142 33.9715 18.6497 33.8907C18.685 33.9199 18.7203 33.9488 18.7555 33.9774L17.7713 37.5564L11.606 38.7895L11.894 40.2298L18.5034 38.9079C18.6369 38.8812 18.7603 38.8179 18.8599 38.7251C18.9595 38.6324 19.0314 38.5137 19.0675 38.3825L20.0301 34.882C21.2225 35.6077 22.3992 35.9844 23.5 35.9844C24.6008 35.9844 25.7775 35.6077 26.9699 34.882L27.9325 38.3824ZM23.5 4.40625C20.8418 4.40138 18.2132 4.96344 15.7894 6.05492C16.8275 4.27194 19.9391 2.9375 23.5 2.9375C27.0609 2.9375 30.1725 4.27194 31.2106 6.05492C28.7868 4.96344 26.1582 4.40138 23.5 4.40625Z" fill="#8A5137"/>
<path d="M27.9062 40.4597V40.3906H26.4374V40.4597C26.4359 41.025 26.6358 41.5725 27.0013 42.0039C27.3667 42.4353 27.8738 42.7225 28.4318 42.8139L35.8636 44.0526L36.1051 42.6037L28.6732 41.3651C28.4587 41.3299 28.2636 41.2195 28.1231 41.0536C27.9825 40.8876 27.9056 40.6771 27.9062 40.4597Z" fill="#8A5137"/>
<path d="M19.0938 40.4597C19.0943 40.6771 19.0175 40.8876 18.8769 41.0536C18.7363 41.2195 18.5413 41.3299 18.3267 41.3651L10.8949 42.6037L11.1364 44.0526L18.5681 42.8139C19.1261 42.7225 19.6332 42.4353 19.9987 42.0039C20.3641 41.5725 20.564 41.0251 20.5625 40.4597V40.3906H19.0938V40.4597Z" fill="#8A5137"/>
</svg>
