<svg width="42" height="42" viewBox="0 0 42 42" fill="none" xmlns="http://www.w3.org/2000/svg">
<g clip-path="url(#clip0)">
<path d="M28.5657 37.8055V32.847C28.5657 28.7465 26.2473 24.9759 22.6207 23.1132C25.2515 21.7627 27.2339 19.3943 28.0955 16.5505C28.1939 16.2257 28.0104 15.8827 27.6856 15.7842C27.3608 15.6856 27.0177 15.8692 26.9192 16.1941C26.1143 18.8507 24.2076 21.04 21.6878 22.2006L20.9185 22.555C20.7006 22.6554 20.5611 22.8733 20.5611 23.1132C20.5611 23.3531 20.7006 23.571 20.9185 23.6713L21.6879 24.0258C25.1194 25.6064 27.3367 29.069 27.3367 32.847V37.659H25.4521V35.7305C25.4521 35.391 25.177 35.1159 24.8376 35.1159C24.4982 35.1159 24.223 35.391 24.223 35.7305V37.6589H12.2467V32.8469C12.2467 30.2802 13.7532 27.9276 16.0847 26.8535L18.2349 25.8631L20.3853 26.8537C22.7167 27.9276 24.2231 30.28 24.2231 32.8469V33.1115C24.2231 33.451 24.4983 33.726 24.8377 33.726C25.177 33.726 25.4522 33.451 25.4522 33.1115V32.8469C25.4522 29.802 23.6651 27.0113 20.8995 25.7374L18.4921 24.6284C18.3289 24.5531 18.141 24.5531 17.9779 24.6284L15.5705 25.7373C12.8049 27.0113 11.0178 29.802 11.0178 32.8469V37.6589H9.13328V32.8469C9.13328 29.0689 11.3506 25.6063 14.7821 24.0256L15.5514 23.6712C15.7693 23.5709 15.9089 23.353 15.9089 23.1131C15.9089 22.8732 15.7693 22.6553 15.5514 22.5549L14.782 22.2005C12.0682 20.9504 10.1088 18.5669 9.40638 15.6612C9.32657 15.3313 8.99423 15.1288 8.66468 15.2083C8.3348 15.2881 8.132 15.6201 8.21173 15.9501C8.96646 19.0721 11.0092 21.6589 13.8489 23.1132C10.2227 24.976 7.90414 28.7466 7.90414 32.8469V37.773C7.24773 38.0221 6.77905 38.6558 6.77905 39.3985V40.2603C6.77905 41.2195 7.55942 41.9999 8.51867 41.9999H27.8693C28.8286 41.9999 29.609 41.2195 29.609 40.2603V39.3985C29.6089 38.687 29.179 38.0747 28.5657 37.8055ZM28.3798 40.2603C28.3798 40.5418 28.1508 40.7709 27.8693 40.7709H8.51858C8.23705 40.7709 8.00803 40.5418 8.00803 40.2603V39.3985C8.00803 39.1169 8.23705 38.8879 8.51858 38.8879H27.8693C28.1508 38.8879 28.3798 39.117 28.3798 39.3985V40.2603Z" fill="#8A5137"/>
<path d="M7.90401 8.45331V13.187C7.90401 13.5265 8.17916 13.8015 8.51854 13.8015C8.85793 13.8015 9.13307 13.5265 9.13307 13.187V8.56753H11.0176V13.3795C11.0176 16.4244 12.8047 19.2151 15.5703 20.489L17.9777 21.598C18.0593 21.6357 18.1471 21.6544 18.2348 21.6544C18.3226 21.6544 18.4104 21.6357 18.492 21.598L20.8992 20.4891C22.8396 19.5953 24.348 17.9167 25.0379 15.8836C25.1469 15.5622 24.9748 15.2132 24.6533 15.1042C24.3321 14.9954 23.983 15.1673 23.8739 15.4886C23.292 17.2037 22.0204 18.6195 20.385 19.3728L18.2348 20.3632L16.0844 19.3726C13.7529 18.2988 12.2465 15.9463 12.2465 13.3794V8.56745H18.8631C19.2024 8.56745 19.4776 8.29238 19.4776 7.95291C19.4776 7.61345 19.2024 7.33838 18.8631 7.33838H8.51854C8.23701 7.33838 8.00799 7.10937 8.00799 6.82783V5.96609C8.00799 5.68456 8.23701 5.45562 8.51854 5.45562H19.1669C19.5063 5.45562 19.7814 5.18056 19.7814 4.84109C19.7814 4.50163 19.5063 4.22656 19.1669 4.22656H8.51854C7.5593 4.22656 6.77893 5.00693 6.77893 5.96609V6.82791C6.77893 7.57051 7.24761 8.20422 7.90401 8.45331Z" fill="#8A5137"/>
<path d="M34.8887 5.09233C34.7871 4.76843 34.4424 4.58809 34.1184 4.68986C33.7946 4.79138 33.6144 5.13625 33.7159 5.46007C33.899 6.04404 33.9919 6.65291 33.9919 7.26982C33.9919 10.6007 31.282 13.3107 27.951 13.3107C24.6201 13.3107 21.9102 10.6008 21.9102 7.26982C21.9102 3.93882 24.6203 1.22906 27.9511 1.22906C29.7317 1.22906 31.4136 2.01066 32.5657 3.37345C32.7847 3.63262 33.1725 3.66514 33.4317 3.44604C33.6908 3.22694 33.7234 2.83922 33.5043 2.58005C32.1182 0.940396 30.0942 0 27.9511 0C23.9425 0 20.6812 3.26128 20.6812 7.2699C20.6812 11.2785 23.9425 14.5398 27.9511 14.5398C31.9597 14.5398 35.221 11.2785 35.221 7.2699C35.221 6.52804 35.1093 5.79536 34.8887 5.09233Z" fill="#8A5137"/>
<path d="M27.9512 3.31824C27.6118 3.31824 27.3366 3.5933 27.3366 3.93277V7.15193C27.3366 7.39209 27.4301 7.61782 27.6001 7.78793L29.8764 10.0641C29.9963 10.1841 30.1537 10.2441 30.3109 10.2441C30.4681 10.2441 30.6255 10.1841 30.7454 10.0641C30.9854 9.82407 30.9854 9.43503 30.7454 9.19504L28.5656 7.01534V3.93277C28.5657 3.5933 28.2906 3.31824 27.9512 3.31824Z" fill="#8A5137"/>
</g>
<defs>
<clipPath id="clip0">
<rect width="42" height="42" fill="white"/>
</clipPath>
</defs>
</svg>
