<svg width="837" height="743" viewBox="0 0 837 743" fill="none" xmlns="http://www.w3.org/2000/svg">
<path d="M386.395 265.497L271.333 254.898C259.401 253.785 248.12 259.108 241.854 268.986L181.607 363.338C175.341 373.217 175.025 385.716 180.69 396.708L235.506 501.658C241.171 512.649 252.136 519.827 264.067 520.939L379.129 531.538C391.061 532.651 402.342 527.328 408.608 517.45L468.855 423.098C475.121 413.219 475.437 400.72 469.772 389.728L414.956 284.778C409.193 274.129 398.326 266.609 386.395 265.497ZM456.333 390.541C461.372 400.375 461.001 411.727 455.6 420.587L401.522 505.403C395.772 514.142 385.955 519.03 375.167 517.936L271.464 508.441C260.676 507.347 250.882 500.762 245.843 490.928L196.567 396.738C191.529 386.904 191.899 375.552 197.301 366.692L251.379 281.876C257.129 273.137 266.946 268.249 277.734 269.343L381.213 278.949C392.002 280.043 401.796 286.628 406.835 296.462L456.333 390.541Z" fill="#FEF6F3"/>
<path d="M517.289 166.347C524.669 165.32 532.383 166.481 539.063 169.923L629.602 217.834C642.265 224.477 651.421 241.403 649.573 255.275L636.536 352.723C634.687 366.595 621.693 379.249 607.952 381.091L509.793 393.491C495.703 395.212 478.926 386.203 472.027 373.45L424.057 283.729C417.159 270.977 419.484 252.746 429.309 243.142L497.936 175.105C502.737 170.358 509.909 167.374 517.289 166.347ZM515.147 155.052C505.032 156.264 495.977 160.481 489.766 166.812L421.139 234.85C407.824 247.958 404.854 271.808 414.136 288.966L462.106 378.687C471.165 395.956 493.325 407.581 511.963 405.361L610.122 392.961C628.983 390.629 645.564 374.128 647.862 355.322L660.676 257.985C663.196 239.069 651.406 217.274 634.28 208.144L543.741 160.234C535.513 155.502 525.261 153.84 515.147 155.052Z" fill="#FEF6F3"/>
<path d="M495.806 45.3998L478.465 48.8604L507.486 162.862L524.827 159.401L495.806 45.3998Z" fill="#FEF6F3"/>
<path d="M494.242 53.6859C501.89 49.907 504.585 40.3916 500.261 32.4327C495.938 24.4738 486.232 21.0853 478.584 24.8642C470.936 28.6431 468.242 38.1585 472.565 46.1174C476.889 54.0763 486.594 57.4648 494.242 53.6859Z" fill="#FEF6F3"/>
<path d="M217.443 156.734L201.28 164.167L253.86 269.427L270.023 261.995L217.443 156.734Z" fill="#FEF6F3"/>
<path d="M214.525 167.221C222.178 163.428 224.888 153.908 220.578 145.956C216.269 138.005 206.571 134.633 198.918 138.425C191.265 142.217 188.555 151.738 192.865 159.69C197.175 167.641 206.872 171.013 214.525 167.221Z" fill="#FEF6F3"/>
<path d="M438.712 630.431L454.712 622.609L399.784 518.545L383.783 526.367L438.712 630.431Z" fill="#FEF6F3"/>
<path d="M457.27 648.454C464.923 644.663 467.632 635.145 463.321 627.194C459.01 619.244 449.311 615.872 441.657 619.663C434.004 623.453 431.295 632.971 435.606 640.922C439.917 648.872 449.616 652.245 457.27 648.454Z" fill="#FEF6F3"/>
<path d="M64.171 387.036L66.9976 409.67L182.769 399.152L179.942 376.519L64.171 387.036Z" fill="#FEF6F3"/>
<path d="M64.8881 415.483C72.5287 411.714 75.2078 402.202 70.8722 394.238C66.5365 386.274 56.8279 382.874 49.1874 386.643C41.5469 390.412 38.8678 399.923 43.2034 407.887C47.539 415.851 57.2476 419.252 64.8881 415.483Z" fill="#FEF6F3"/>
<path d="M175.936 602.547L193.844 614.489L257.159 518.744L239.251 506.803L175.936 602.547Z" fill="#FEF6F3"/>
<path d="M187.412 630.661C195.053 626.892 197.732 617.378 193.397 609.411C189.062 601.445 179.354 598.042 171.713 601.81C164.073 605.579 161.393 615.093 165.728 623.06C170.064 631.026 179.772 634.429 187.412 630.661Z" fill="#FEF6F3"/>
</svg>
