<svg width="824" height="311" viewBox="0 0 824 311" fill="none" xmlns="http://www.w3.org/2000/svg">
<path opacity="0.05" d="M319.86 1.086C320.449 0.791316 321.039 0.938648 321.628 1.52799C322.217 1.82265 322.365 2.26465 322.07 2.85397C317.65 13.7566 312.199 24.2173 305.716 34.236C299.528 43.96 292.603 52.9473 284.942 61.198L280.964 67.828C263.873 98.1787 246.635 128.529 229.25 158.88C234.554 159.175 239.858 159.469 245.162 159.764C246.046 159.764 246.488 160.206 246.488 161.09C246.488 161.974 246.046 162.416 245.162 162.416C240.153 162.121 234.407 161.827 227.924 161.532C222.915 170.372 217.758 179.359 212.454 188.494L178.42 248.606L160.74 279.104C159.856 280.872 158.383 283.524 156.32 287.06C154.552 290.301 153.079 292.953 151.9 295.016C150.721 297.079 149.248 299.583 147.48 302.53C145.712 305.182 144.091 307.687 142.618 310.044C142.029 310.928 141.145 311.075 139.966 310.486C138.787 309.897 138.493 309.013 139.082 307.834C141.439 303.119 148.217 291.038 159.414 271.59L178.862 236.672C193.301 211.625 207.739 186.431 222.178 161.09C209.802 160.795 199.783 160.795 192.122 161.09C160.003 161.385 128.327 164.626 97.092 170.814C96.2079 171.109 95.1766 171.403 93.998 171.698C92.8193 171.993 92.0826 172.14 91.788 172.14C91.1986 173.024 89.578 175.676 86.9259 180.096C66.5939 211.92 46.4093 244.039 26.3719 276.452C26.0773 277.041 25.6353 277.336 25.0459 277.336C23.8673 277.336 23.2779 276.747 23.2779 275.568C23.2779 275.273 23.2779 274.979 23.2779 274.684C34.4753 256.415 45.8199 238.293 57.3119 220.318C67.0359 204.406 76.9073 188.641 86.9259 173.024C73.9606 175.971 61.8793 179.359 50.6819 183.19C43.6099 185.547 35.8013 188.347 27.2559 191.588C26.6666 191.883 23.2779 193.356 17.0899 196.008C10.9019 198.66 6.18728 200.428 2.94595 201.312C2.65128 201.312 2.50395 201.312 2.50395 201.312C1.03061 201.312 0.293945 200.723 0.293945 199.544C0.293945 198.66 0.588612 198.071 1.17795 197.776C9.42861 193.061 17.9739 189.231 26.8139 186.284C35.6539 183.043 44.4939 180.096 53.3339 177.444C65.4153 174.203 77.4966 171.256 89.5779 168.604C99.0073 153.871 108.437 139.137 117.866 124.404C135.841 97 153.963 69.7433 172.232 42.634L144.386 68.27L124.938 85.508C118.75 91.696 112.12 97.442 105.048 102.746C104.753 103.041 104.459 103.041 104.164 102.746C104.164 102.451 104.311 102.157 104.606 101.862C110.499 95.3793 116.835 89.1913 123.612 83.298L142.618 65.618C155.583 53.8313 168.401 41.8973 181.072 29.816C181.956 29.2267 182.693 29.374 183.282 30.258C184.166 30.8473 184.313 31.584 183.724 32.468C165.16 60.1666 153.373 77.8466 148.364 85.508C130.389 112.617 112.415 140.021 94.44 167.72C112.415 164.184 130.537 161.679 148.806 160.206C165.602 159.027 182.398 158.438 199.194 158.438C207.15 158.438 215.253 158.585 223.504 158.88C231.755 144.147 240.005 129.561 248.256 115.122C252.676 107.461 259.011 96.4107 267.262 81.972C275.807 67.5333 281.259 58.104 283.616 53.684C289.509 43.3707 295.55 32.91 301.738 22.302C302.327 21.7127 303.211 20.534 304.39 18.766C305.569 16.7033 306.305 15.23 306.6 14.346C307.189 13.462 308.073 12.136 309.252 10.368C310.431 8.59999 311.462 7.27399 312.346 6.38998C313.23 5.50599 314.261 4.622 315.44 3.73799C316.913 2.55932 318.387 1.67532 319.86 1.086ZM303.506 33.352C308.515 24.8066 313.083 15.9666 317.208 6.83198C313.967 9.48398 311.462 12.7253 309.694 16.556C308.515 18.9133 306.747 22.1547 304.39 26.28C302.033 30.4053 300.559 32.91 299.97 33.794C298.497 36.446 294.813 43.2233 288.92 54.126C294.224 47.3487 299.086 40.424 303.506 33.352ZM296.862 184.516L297.746 185.4C290.674 191.588 282.423 195.271 272.994 196.45C272.699 196.45 272.257 196.45 271.668 196.45C270.489 200.575 268.721 204.553 266.364 208.384C261.649 216.929 256.345 222.97 250.452 226.506C247.505 228.274 244.117 229.158 240.286 229.158C239.107 229.158 237.929 229.011 236.75 228.716C231.741 227.537 228.352 224.591 226.584 219.876C225.7 217.224 225.258 214.277 225.258 211.036C225.258 206.616 226.289 202.343 228.352 198.218C229.825 194.682 231.888 191.441 234.54 188.494C236.308 186.431 238.518 184.663 241.17 183.19C241.759 182.895 242.496 182.601 243.38 182.306C242.201 179.949 241.612 177.591 241.612 175.234C241.612 172.287 242.349 169.488 243.822 166.836C245.59 163.889 247.653 161.827 250.01 160.648C252.367 159.175 254.872 158.438 257.524 158.438C261.944 158.438 265.627 160.059 268.574 163.3C272.994 168.309 274.615 175.676 273.436 185.4C273.436 187.757 273.141 190.115 272.552 192.472C273.436 192.472 274.173 192.472 274.762 192.472C275.646 192.472 276.383 192.472 276.972 192.472C284.339 191.883 290.969 189.231 296.862 184.516ZM250.01 167.278V167.72C246.769 173.319 248.095 179.065 253.988 184.958C258.703 189.378 264.301 191.883 270.784 192.472C271.079 190.409 271.373 188.347 271.668 186.284C272.847 177.149 271.668 170.372 268.132 165.952C265.775 162.711 262.681 161.09 258.85 161.09C254.725 161.679 251.778 163.742 250.01 167.278ZM266.364 203.964V204.406C267.543 201.754 268.574 199.249 269.458 196.892C258.555 196.892 250.747 193.503 246.032 186.726C245.737 187.021 245.148 187.757 244.264 188.936C243.38 189.82 242.643 190.557 242.054 191.146C239.402 193.798 237.192 197.039 235.424 200.87C232.183 207.647 231.741 213.393 234.098 218.108C235.866 222.233 238.96 224.296 243.38 224.296C243.969 224.296 244.559 224.149 245.148 223.854C248.979 223.265 252.22 221.644 254.872 218.992C259.587 214.867 263.417 209.857 266.364 203.964ZM400.28 184.074C400.869 182.895 401.311 183.043 401.606 184.516C401.9 184.811 401.9 185.105 401.606 185.4C398.364 190.704 393.65 193.945 387.462 195.124C381.568 196.303 375.97 195.124 370.666 191.588C369.782 190.704 368.898 189.82 368.014 188.936V189.378C364.183 198.218 359.321 206.321 353.428 213.688C350.481 217.813 347.24 221.644 343.704 225.18C340.462 229.305 336.337 232.252 331.328 234.02C330.149 234.609 328.823 234.904 327.35 234.904C324.992 234.904 322.635 234.167 320.278 232.694C317.92 230.926 316.447 228.863 315.858 226.506C314.679 223.265 314.09 219.729 314.09 215.898C314.09 213.835 314.237 211.625 314.532 209.268C315.416 204.259 316.889 199.249 318.952 194.24C319.541 192.767 320.13 191.441 320.72 190.262C317.773 192.619 314.826 194.977 311.88 197.334C304.513 203.227 299.209 206.763 295.968 207.942C291.253 209.71 288.159 209.268 286.686 206.616C285.212 203.964 285.507 200.575 287.57 196.45C290.222 191.146 293.463 186.431 297.294 182.306C303.482 175.234 309.228 171.109 314.532 169.93C314.826 169.93 314.974 169.93 314.974 169.93C316.447 169.93 317.184 170.519 317.184 171.698C317.184 171.993 317.036 172.435 316.742 173.024C314.09 175.971 311.143 178.77 307.902 181.422C305.839 183.19 303.924 185.253 302.156 187.61C300.093 189.967 298.325 192.472 296.852 195.124C295.968 196.303 294.936 197.776 293.758 199.544C292.874 201.017 292.432 202.491 292.432 203.964C293.905 204.848 296.852 203.964 301.272 201.312C304.513 199.249 307.607 197.039 310.554 194.682C316.152 190.851 322.046 186.137 328.234 180.538C328.234 180.538 328.381 180.538 328.676 180.538C328.97 180.538 329.118 180.538 329.118 180.538L330.002 180.096C330.886 180.096 331.328 180.538 331.328 181.422C331.033 183.779 330.296 186.137 329.118 188.494C327.055 192.325 325.287 196.303 323.814 200.428C322.635 204.848 321.898 209.268 321.604 213.688C321.309 215.161 321.162 216.487 321.162 217.666C321.162 220.613 321.604 223.412 322.488 226.064C324.845 230.779 328.97 231.515 334.864 228.274C338.989 225.917 342.672 222.823 345.914 218.992C348.86 215.751 351.66 212.362 354.312 208.826C359.321 202.049 363.446 194.829 366.688 187.168C364.036 183.927 362.71 180.243 362.71 176.118C362.71 173.466 363.594 170.667 365.362 167.72C367.13 164.479 369.192 162.121 371.55 160.648C371.844 160.648 372.139 160.648 372.434 160.648C372.728 160.648 373.023 160.795 373.318 161.09C375.38 162.858 375.528 166.836 373.76 173.024C372.581 177.149 371.255 181.127 369.782 184.958C370.371 186.137 371.255 187.021 372.434 187.61C377.148 191.735 382.158 193.503 387.462 192.914C392.766 192.03 397.038 189.083 400.28 184.074ZM372.434 163.742C368.603 166.689 366.688 170.667 366.688 175.676C366.688 178.033 367.277 180.243 368.456 182.306C369.34 179.654 370.076 177.149 370.666 174.792C371.255 173.024 371.844 171.109 372.434 169.046C372.728 168.162 372.876 167.278 372.876 166.394C372.876 165.51 372.728 164.626 372.434 163.742ZM647.24 94.79C647.83 94.79 648.124 95.232 648.124 96.116C648.124 96.7053 647.83 96.8527 647.24 96.558C632.802 96.2633 618.363 95.9687 603.924 95.674C585.655 95.674 567.386 95.674 549.116 95.674C548.232 97.1473 546.464 99.9467 543.812 104.072C541.455 107.903 539.54 110.849 538.066 112.912C524.806 133.539 513.02 152.397 502.706 169.488C496.813 179.212 490.92 189.083 485.026 199.102C479.428 208.826 476.628 213.688 476.628 213.688C473.682 219.287 470.293 224.738 466.462 230.042C465.578 231.221 464.547 231.515 463.368 230.926C461.895 230.042 461.453 228.863 462.042 227.39C464.694 221.497 467.641 215.898 470.882 210.594C475.302 202.343 478.544 196.597 480.606 193.356C492.098 173.613 503.885 153.871 515.966 134.128C520.976 126.467 527.016 117.037 534.088 105.84C536.151 102.599 538.214 99.3573 540.276 96.116C533.204 96.116 528.048 96.2633 524.806 96.558C513.904 96.8527 499.907 97.2947 482.816 97.884C480.164 97.884 476.481 98.0313 471.766 98.326C466.757 98.6207 463.221 98.768 461.158 98.768C457.033 99.0627 452.908 99.21 448.782 99.21C446.425 99.21 444.068 99.21 441.71 99.21C440.237 98.9153 439.648 98.0313 439.942 96.558C439.942 94.79 440.679 93.7587 442.152 93.464C448.93 92.8746 455.854 92.58 462.926 92.58C464.105 92.58 465.431 92.58 466.904 92.58H489.446C507.126 92.58 524.806 92.58 542.486 92.58L543.37 91.254C548.969 83.298 552.8 78.436 554.862 76.668C555.452 76.3733 555.894 76.226 556.188 76.226C557.662 76.226 558.398 76.9626 558.398 78.436C558.398 78.436 558.398 78.5833 558.398 78.878C556.63 83.8873 554.126 88.602 550.884 93.022C585.655 93.3167 617.774 93.906 647.24 94.79ZM566.206 184.516L567.09 185.4C560.018 191.588 551.767 195.271 542.338 196.45C542.043 196.45 541.601 196.45 541.012 196.45C539.833 200.575 538.065 204.553 535.708 208.384C530.993 216.929 525.689 222.97 519.796 226.506C516.849 228.274 513.461 229.158 509.63 229.158C508.451 229.158 507.273 229.011 506.094 228.716C501.085 227.537 497.696 224.591 495.928 219.876C495.044 217.224 494.602 214.277 494.602 211.036C494.602 206.616 495.633 202.343 497.696 198.218C499.169 194.682 501.232 191.441 503.884 188.494C505.652 186.431 507.862 184.663 510.514 183.19C511.103 182.895 511.84 182.601 512.724 182.306C511.545 179.949 510.956 177.591 510.956 175.234C510.956 172.287 511.693 169.488 513.166 166.836C514.934 163.889 516.997 161.827 519.354 160.648C521.711 159.175 524.216 158.438 526.868 158.438C531.288 158.438 534.971 160.059 537.918 163.3C542.338 168.309 543.959 175.676 542.78 185.4C542.78 187.757 542.485 190.115 541.896 192.472C542.78 192.472 543.517 192.472 544.106 192.472C544.99 192.472 545.727 192.472 546.316 192.472C553.683 191.883 560.313 189.231 566.206 184.516ZM519.354 167.278V167.72C516.113 173.319 517.439 179.065 523.332 184.958C528.047 189.378 533.645 191.883 540.128 192.472C540.423 190.409 540.717 188.347 541.012 186.284C542.191 177.149 541.012 170.372 537.476 165.952C535.119 162.711 532.025 161.09 528.194 161.09C524.069 161.679 521.122 163.742 519.354 167.278ZM535.708 203.964V204.406C536.887 201.754 537.918 199.249 538.802 196.892C527.899 196.892 520.091 193.503 515.376 186.726C515.081 187.021 514.492 187.757 513.608 188.936C512.724 189.82 511.987 190.557 511.398 191.146C508.746 193.798 506.536 197.039 504.768 200.87C501.527 207.647 501.085 213.393 503.442 218.108C505.21 222.233 508.304 224.296 512.724 224.296C513.313 224.296 513.903 224.149 514.492 223.854C518.323 223.265 521.564 221.644 524.216 218.992C528.931 214.867 532.761 209.857 535.708 203.964ZM726.358 184.516C726.948 184.221 727.537 184.516 728.126 185.4C719.876 196.892 713.835 205.143 710.004 210.152C704.406 217.224 698.365 223.854 691.882 230.042C688.641 232.989 684.958 235.346 680.832 237.114C679.948 237.409 678.917 237.556 677.738 237.556C674.202 237.556 671.992 235.788 671.108 232.252C669.93 227.832 670.961 221.939 674.202 214.572C675.676 210.447 677.444 206.616 679.506 203.08L676.854 205.29C670.961 210.889 664.184 215.161 656.522 218.108C654.754 218.992 652.986 219.434 651.218 219.434C649.745 219.434 648.272 219.139 646.798 218.55C643.262 216.487 641.494 213.541 641.494 209.71C641.2 205.879 642.673 200.133 645.914 192.472C647.977 188.052 650.482 183.927 653.428 180.096C659.911 170.961 666.394 164.773 672.876 161.532C674.35 160.648 675.528 160.943 676.412 162.416C677.591 163.889 677.591 165.068 676.412 165.952C675.528 167.131 673.908 168.751 671.55 170.814C669.488 172.877 667.867 174.35 666.688 175.234C664.036 177.886 661.679 180.833 659.616 184.074C657.259 187.021 654.902 190.262 652.544 193.798C649.598 198.218 647.388 202.785 645.914 207.5C645.325 208.679 645.03 209.71 645.03 210.594C645.03 212.657 645.914 214.572 647.682 216.34C648.861 216.929 650.04 217.224 651.218 217.224C651.808 217.224 652.397 217.224 652.986 217.224C656.522 216.635 659.911 215.309 663.152 213.246C669.34 210.005 675.086 205.879 680.39 200.87L681.274 199.986C683.042 196.45 684.958 193.356 687.02 190.704C689.672 185.989 692.914 182.011 696.744 178.77C697.334 178.181 697.923 177.886 698.512 177.886C700.575 177.886 701.606 178.917 701.606 180.98C701.606 181.275 701.459 181.717 701.164 182.306C698.807 186.431 696.155 190.409 693.208 194.24C690.851 198.071 688.641 201.607 686.578 204.848C685.4 207.205 683.632 210.741 681.274 215.456C677.738 223.117 675.97 228.127 675.97 230.484C675.97 231.957 676.56 232.989 677.738 233.578C678.917 234.167 680.243 234.167 681.716 233.578C683.779 232.694 685.694 231.515 687.462 230.042C690.704 227.685 693.798 225.033 696.744 222.086C707.647 210.299 717.518 197.776 726.358 184.516ZM749.308 162.416C751.96 163.889 753.286 166.099 753.286 169.046C753.286 169.635 753.286 170.077 753.286 170.372C752.402 174.203 750.487 177.297 747.54 179.654C746.951 179.654 746.509 179.359 746.214 178.77C748.571 176.707 750.045 174.203 750.634 171.256C750.634 170.961 750.634 170.814 750.634 170.814C750.634 167.867 749.161 166.394 746.214 166.394C746.214 166.394 746.067 166.394 745.772 166.394C741.352 166.983 737.669 170.372 734.722 176.56C732.659 180.391 730.891 188.494 729.418 200.87C728.239 212.362 725.293 220.023 720.578 223.854C718.221 225.622 715.569 226.506 712.622 226.506C709.97 226.506 707.465 225.622 705.108 223.854C702.751 221.791 701.13 219.434 700.246 216.782C699.362 214.13 699.509 211.036 700.688 207.5C701.572 203.964 703.193 201.312 705.55 199.544C705.845 199.249 706.139 199.102 706.434 199.102C707.907 199.102 708.644 199.839 708.644 201.312C708.644 201.901 708.349 202.343 707.76 202.638C704.224 204.701 702.456 207.795 702.456 211.92C702.456 212.804 702.603 213.688 702.898 214.572C703.487 216.929 704.666 218.845 706.434 220.318C707.907 221.791 709.675 222.381 711.738 222.086C715.274 221.791 717.926 218.55 719.694 212.362C721.167 208.237 722.051 203.964 722.346 199.544C723.525 187.757 724.998 179.654 726.766 175.234C728.534 171.403 730.744 168.015 733.396 165.068C738.995 160.059 744.299 159.175 749.308 162.416ZM822.027 184.516C822.322 183.927 822.764 183.779 823.353 184.074C823.943 184.369 824.09 184.811 823.795 185.4C816.723 195.419 804.495 204.111 787.109 211.478C783.573 212.951 779.89 214.277 776.059 215.456C772.229 216.34 767.956 217.077 763.241 217.666C758.821 217.961 754.991 217.077 751.749 215.014C748.508 212.951 746.593 209.71 746.003 205.29C744.825 199.102 747.035 192.177 752.633 184.516C756.759 178.917 761.915 174.497 768.103 171.256C771.934 169.488 775.765 168.309 779.595 167.72C781.363 167.131 783.131 166.836 784.899 166.836C786.962 166.836 789.025 167.131 791.087 167.72C793.445 168.309 794.623 169.93 794.623 172.582C794.623 172.582 794.623 172.729 794.623 173.024C794.329 174.792 792.561 177.149 789.319 180.096C784.31 183.927 778.711 186.873 772.523 188.936C769.282 189.82 765.893 190.557 762.357 191.146C760.295 191.441 758.674 191.735 757.495 192.03H756.611C751.013 201.165 751.307 207.353 757.495 210.594C762.505 213.246 769.282 213.541 777.827 211.478C783.721 209.71 789.467 207.5 795.065 204.848C807.736 198.955 816.723 192.177 822.027 184.516ZM763.683 182.748C761.915 184.516 760.295 186.431 758.821 188.494C761.179 188.199 762.652 188.052 763.241 188.052C766.483 187.463 769.724 186.726 772.965 185.842C779.448 184.369 785.047 181.275 789.761 176.56C792.413 174.203 792.855 172.435 791.087 171.256C790.498 170.961 789.909 170.814 789.319 170.814C786.373 171.109 783.426 171.698 780.479 172.582C774.291 174.645 768.693 178.033 763.683 182.748Z" fill="black"/>
</svg>
