<svg width="180" height="19" viewBox="0 0 180 19" fill="none" xmlns="http://www.w3.org/2000/svg">
<g clip-path="url(#clip0)">
<path d="M8.74 14.7301L9.74 16.8901L9.49 16.9901C8.49112 17.7285 7.28219 18.128 6.04 18.1301C4.43676 18.1301 2.89919 17.4932 1.76553 16.3595C0.631877 15.2259 -0.00500488 13.6883 -0.00500488 12.0851C-0.00500488 10.4819 0.631877 8.94428 1.76553 7.81063C2.89919 6.67697 4.43676 6.04008 6.04 6.04008C7.27236 6.03523 8.47531 6.4164 9.48 7.13008L9.73 7.25009L8.73 9.34009L8.39 9.10009C7.73226 8.5493 6.89775 8.25456 6.04 8.27009C5.03217 8.27009 4.06563 8.67044 3.35299 9.38308C2.64035 10.0957 2.24 11.0623 2.24 12.0701C2.24 13.0779 2.64035 14.0445 3.35299 14.7571C4.06563 15.4697 5.03217 15.8701 6.04 15.8701C6.91508 15.8583 7.76064 15.5518 8.43999 15.0001L8.74 14.7301Z" fill="#8A5137"/>
<path d="M29.84 12.1299C29.8183 13.2908 29.454 14.4193 28.7929 15.3738C28.1318 16.3282 27.2033 17.066 26.1242 17.4943C25.045 17.9227 23.8634 18.0226 22.7276 17.7814C21.5919 17.5403 20.5528 16.9688 19.7408 16.1389C18.9289 15.309 18.3803 14.2576 18.1641 13.1168C17.9479 11.9761 18.0736 10.7969 18.5255 9.72737C18.9774 8.65787 19.7353 7.74579 20.704 7.10573C21.6727 6.46566 22.809 6.12617 23.97 6.12991C25.5428 6.15101 27.0433 6.79405 28.1433 7.91842C29.2433 9.04279 29.8534 10.557 29.84 12.1299ZM27.71 12.1299C27.6923 11.3919 27.4571 10.6755 27.034 10.0706C26.6109 9.46566 26.0186 8.99906 25.3315 8.72929C24.6443 8.45951 23.8928 8.39856 23.1711 8.55407C22.4495 8.70958 21.7898 9.07464 21.2747 9.60348C20.7596 10.1323 20.4121 10.8014 20.2757 11.527C20.1393 12.2525 20.22 13.0021 20.5078 13.6819C20.7956 14.3617 21.2777 14.9415 21.8936 15.3485C22.5095 15.7555 23.2318 15.9717 23.97 15.9699C24.4677 15.9634 24.9593 15.8589 25.4166 15.6624C25.874 15.4659 26.2881 15.1812 26.6354 14.8246C26.9827 14.468 27.2564 14.0465 27.4407 13.5841C27.6251 13.1218 27.7166 12.6276 27.71 12.1299Z" fill="#8A5137"/>
<path d="M80.43 12.2001C80.4417 12.5595 80.4081 12.919 80.33 13.2701H70.87C71.0715 14.0713 71.5334 14.783 72.1832 15.2934C72.8329 15.8038 73.6338 16.084 74.46 16.0901C75.1767 16.0981 75.8773 15.8774 76.46 15.4601H79.46C78.9439 16.3259 78.2117 17.0429 77.3352 17.5407C76.4587 18.0385 75.468 18.3002 74.46 18.3001C73.2467 18.3219 72.0543 17.982 71.035 17.3236C70.0156 16.6652 69.2154 15.7181 68.7363 14.6032C68.2572 13.4882 68.121 12.2559 68.345 11.0632C68.569 9.87058 69.143 8.77163 69.994 7.90649C70.845 7.04134 71.9343 6.44919 73.1231 6.20551C74.3119 5.96183 75.5463 6.07767 76.669 6.53825C77.7917 6.99883 78.7519 7.7833 79.427 8.79165C80.1022 9.8 80.4618 10.9866 80.46 12.2001H80.43ZM70.87 11.1101H78.1C77.8807 10.3099 77.4069 9.60297 76.7502 9.09601C76.0935 8.58904 75.2896 8.30965 74.46 8.30007C73.6364 8.3106 72.8391 8.59126 72.1905 9.09891C71.542 9.60657 71.078 10.3131 70.87 11.1101Z" fill="#8A5137"/>
<path d="M100.39 12.2001C100.402 12.5595 100.368 12.919 100.29 13.2701H90.83C91.0316 14.0713 91.4935 14.783 92.1432 15.2934C92.793 15.8038 93.5938 16.084 94.42 16.0901C95.1367 16.0981 95.8373 15.8774 96.42 15.4601H99.42C98.9003 16.3339 98.1605 17.0561 97.2743 17.5545C96.3881 18.0528 95.3867 18.3099 94.37 18.3001C93.1567 18.3219 91.9644 17.982 90.945 17.3236C89.9256 16.6652 89.1254 15.7181 88.6463 14.6032C88.1672 13.4882 88.031 12.2559 88.255 11.0632C88.479 9.87058 89.0531 8.77163 89.9041 7.90649C90.755 7.04134 91.8443 6.44919 93.0331 6.20551C94.2219 5.96183 95.4563 6.07767 96.579 6.53825C97.7018 6.99883 98.6619 7.7833 99.337 8.79165C100.012 9.8 100.372 10.9866 100.37 12.2001H100.39ZM90.83 11.1101H98.04C97.8207 10.3099 97.3469 9.60297 96.6902 9.09601C96.0335 8.58904 95.2296 8.30965 94.4 8.30007C93.5799 8.31494 92.7872 8.59758 92.1426 9.1049C91.4981 9.61223 91.0371 10.3164 90.83 11.1101Z" fill="#8A5137"/>
<path d="M136.04 6.05005V18.21H133.83V16.85C132.805 17.7346 131.494 18.2177 130.14 18.21C128.549 18.21 127.023 17.5779 125.897 16.4527C124.772 15.3275 124.14 13.8013 124.14 12.21C124.14 10.6187 124.772 9.09263 125.897 7.96741C127.023 6.84219 128.549 6.21005 130.14 6.21005C131.494 6.20238 132.805 6.68553 133.83 7.57005V6.05005H136.04ZM133.83 12.7V11.7C133.703 10.7413 133.216 9.86671 132.468 9.25359C131.721 8.64046 130.767 8.3347 129.802 8.3983C128.837 8.46189 127.933 8.89009 127.272 9.59606C126.611 10.302 126.243 11.2329 126.243 12.2C126.243 13.1672 126.611 14.0981 127.272 14.804C127.933 15.51 128.837 15.9382 129.802 16.0018C130.767 16.0654 131.721 15.7596 132.468 15.1465C133.216 14.5334 133.703 13.6588 133.83 12.7Z" fill="#8A5137"/>
<path d="M152.73 14.7799L153.73 16.9399L153.49 17.0399C152.49 17.7764 151.282 18.1757 150.04 18.1799C148.437 18.1799 146.899 17.543 145.766 16.4094C144.632 15.2757 143.995 13.7381 143.995 12.1349C143.995 10.5317 144.632 8.99409 145.766 7.86043C146.899 6.72677 148.437 6.08989 150.04 6.08989C151.275 6.08496 152.482 6.46604 153.49 7.17989L153.73 7.29989L152.73 9.38989L152.39 9.14989C151.738 8.60207 150.911 8.3074 150.06 8.31989C149.052 8.31989 148.086 8.72025 147.373 9.43288C146.66 10.1455 146.26 11.1121 146.26 12.1199C146.26 13.1277 146.66 14.0943 147.373 14.8069C148.086 15.5195 149.052 15.9199 150.06 15.9199C150.935 15.9081 151.781 15.6016 152.46 15.0499L152.73 14.7799Z" fill="#8A5137"/>
<path d="M173.64 12.14C173.652 12.4995 173.618 12.859 173.54 13.21H164.04C164.242 14.0113 164.703 14.723 165.353 15.2334C166.003 15.7437 166.804 16.024 167.63 16.03C168.347 16.038 169.047 15.8173 169.63 15.4H172.63C172.109 16.2725 171.369 16.9936 170.483 17.4917C169.597 17.9899 168.596 18.2479 167.58 18.24C166.367 18.2619 165.174 17.9219 164.155 17.2635C163.136 16.6051 162.335 15.6581 161.856 14.5431C161.377 13.4282 161.241 12.1958 161.465 11.0032C161.689 9.81052 162.263 8.71157 163.114 7.84643C163.965 6.98128 165.054 6.38913 166.243 6.14545C167.432 5.90177 168.666 6.01761 169.789 6.47819C170.912 6.93877 171.872 7.72324 172.547 8.73159C173.222 9.73994 173.582 10.9265 173.58 12.14H173.64ZM164.04 11.05H171.27C171.051 10.2499 170.577 9.54291 169.92 9.03595C169.263 8.52898 168.46 8.24959 167.63 8.24001C166.806 8.25054 166.009 8.5312 165.361 9.03886C164.712 9.54651 164.248 10.2531 164.04 11.05Z" fill="#8A5137"/>
<path d="M41.14 8.19996V18.2H39.04V8.19996V5.98996C39.0397 5.18752 39.2003 4.39316 39.5124 3.6539C39.8245 2.91464 40.2817 2.2455 40.857 1.68606C41.4323 1.12663 42.1139 0.688279 42.8616 0.396947C43.6093 0.105615 44.4079 -0.0327781 45.21 -0.0100422V2.27996C44.6994 2.25299 44.1886 2.32935 43.7083 2.50444C43.2279 2.67954 42.7878 2.94977 42.4143 3.29897C42.0408 3.64817 41.7417 4.06914 41.5347 4.53668C41.3278 5.00422 41.2173 5.50872 41.21 6.01996L41.14 8.19996Z" fill="#8A5137"/>
<path d="M45.5 9.09009H37.14V11.1201H45.5V9.09009Z" fill="#8A5137"/>
<path d="M56.56 8.19993V18.1999H54.42V8.19993V5.98993C54.4197 5.18835 54.58 4.39484 54.8915 3.65626C55.203 2.91768 55.6593 2.249 56.2335 1.6897C56.8077 1.13041 57.4882 0.691838 58.2347 0.399894C58.9812 0.107951 59.7787 -0.0314486 60.58 -0.0100732V2.27993C60.0694 2.25296 59.5586 2.32931 59.0783 2.50441C58.5979 2.6795 58.1578 2.94974 57.7843 3.29894C57.4108 3.64813 57.1117 4.06911 56.9047 4.53665C56.6978 5.00419 56.5873 5.50869 56.58 6.01993L56.56 8.19993Z" fill="#8A5137"/>
<path d="M60.91 9.09009H52.55V11.1201H60.91V9.09009Z" fill="#8A5137"/>
<path d="M112.18 8.22996V18.23H110.04V8.22996V6.01996C110.04 5.21838 110.2 4.42487 110.512 3.68629C110.823 2.94771 111.279 2.27902 111.854 1.71973C112.428 1.16043 113.108 0.721867 113.855 0.429924C114.601 0.13798 115.399 -0.00141932 116.2 0.0199561V2.29996C115.689 2.27299 115.179 2.34934 114.698 2.52444C114.218 2.69953 113.778 2.96977 113.404 3.31897C113.031 3.66816 112.732 4.08914 112.525 4.55668C112.318 5.02422 112.207 5.52872 112.2 6.03996L112.18 8.22996Z" fill="#8A5137"/>
<path d="M116.54 9.12012H108.18V11.1501H116.54V9.12012Z" fill="#8A5137"/>
<path d="M176.13 1.78003V2.17003H175.13V4.73003H174.71V2.17003H173.71V1.78003H176.13Z" fill="#8A5137"/>
<path d="M179.54 1.79004V4.72004H179.14V2.72004L178.23 4.72004L177.35 2.72004V4.72004H176.95V1.79004H177.43L178.23 3.69004L179.07 1.79004H179.54Z" fill="#8A5137"/>
</g>
<defs>
<clipPath id="clip0">
<rect width="179.55" height="18.3" fill="white"/>
</clipPath>
</defs>
</svg>
